<svg width="144" height="132" viewBox="0 0 144 132" version="1.1" xmlns="http://www.w3.org/2000/svg" xmlns:xlink="http://www.w3.org/1999/xlink">
<title>&#209;&#132;&#208;&#184;&#209;&#130;&#208;&#189;&#208;&#181;&#209;&#129;&#209;&#130;&#208;&#181;&#209;&#129;&#209;&#130;&#208;&#184;&#209;&#128;&#208;&#190;&#208;&#178;&#208;&#176;&#208;&#189;&#208;&#184;&#208;&#181;</title>
<desc>Created using Figma</desc>
<g id="Canvas" transform="matrix(2 0 0 2 -3090 -3754)">
<g id="&#209;&#132;&#208;&#184;&#209;&#130;&#208;&#189;&#208;&#181;&#209;&#129;&#209;&#130;&#208;&#181;&#209;&#129;&#209;&#130;&#208;&#184;&#209;&#128;&#208;&#190;&#208;&#178;&#208;&#176;&#208;&#189;&#208;&#184;&#208;&#181;">
<g id="Vector 6">
<use xlink:href="#path0_stroke" transform="translate(1546 1878)" fill="#31AF31"/>
</g>
</g>
</g>
<defs>
<path id="path0_stroke" d="M 41 31L 40.0715 31.3714L 40.3229 32L 41 32L 41 31ZM 37 21L 37.9284 20.6286L 36.8616 17.9615L 36.0416 20.7145L 37 21ZM 30 44.5L 29.0289 44.7388L 29.9077 48.3126L 30.9583 44.7855L 30 44.5ZM 22.5 14L 23.471 13.7612L 22.797 11.0202L 21.5952 13.5742L 22.5 14ZM 14.5 31L 14.5 32L 15.1346 32L 15.4048 31.4258L 14.5 31ZM 35 63.5L 34.2996 64.2138L 35 64.9009L 35.7003 64.2138L 35 63.5ZM 35 7L 34.5114 7.87251L 35 8.14612L 35.4886 7.87251L 35 7ZM 1.49953 12.5L 0.566183 12.141L 0.566183 12.141L 1.49953 12.5ZM 56 30L 41 30L 41 32L 56 32L 56 30ZM 41.9284 30.6286L 37.9284 20.6286L 36.0715 21.3714L 40.0715 31.3714L 41.9284 30.6286ZM 36.0416 20.7145L 29.0416 44.2145L 30.9583 44.7855L 37.9583 21.2855L 36.0416 20.7145ZM 30.971 44.2612L 23.471 13.7612L 21.5289 14.2388L 29.0289 44.7388L 30.971 44.2612ZM 21.5952 13.5742L 13.5952 30.5742L 15.4048 31.4258L 23.4048 14.4258L 21.5952 13.5742ZM 14.5 30L 0 30L 0 32L 14.5 32L 14.5 30ZM 35.7003 64.2138C 44.5322 55.5485 57.1023 43.3118 60.7071 39.7071L 59.2929 38.2929C 55.6976 41.8882 43.1343 54.1182 34.2996 62.7862L 35.7003 64.2138ZM 60.7071 39.7071C 65.528 34.8862 68.5845 30.2506 69.9942 25.6691C 71.3774 21.1196 71.112 16.5386 69.4333 12.141L 67.5666 12.859C 69.1572 16.9614 69.3918 20.8804 68.0826 25.0809C 66.8 29.2494 63.9719 33.6138 59.2929 38.2929L 60.7071 39.7071ZM 69.4333 12.141C 65.9976 3.20822 57.3614 -1 51 -1L 51 1C 56.6385 1 64.4638 4.79178 67.5666 12.859L 69.4333 12.141ZM 51 -1C 42.6533 -1 38.3241 3.99234 34.5114 6.12749L 35.4886 7.87251C 40.0091 5.34099 43.3466 1 51 1L 51 -1ZM 35.7003 62.7862C 26.8656 54.1181 14.3019 41.8882 10.7066 38.2929L 9.29242 39.7071C 12.8972 43.3118 25.4677 55.5485 34.2996 64.2138L 35.7003 62.7862ZM 2.43287 12.859C 5.53564 4.79178 13.361 1 18.9995 1L 18.9995 -1C 12.6381 -1 4.00188 3.20822 0.566183 12.141L 2.43287 12.859ZM 18.9995 1C 26.6528 1 29.9908 5.34101 34.5114 7.87251L 35.4886 6.12749C 31.6757 3.99232 27.3462 -1 18.9995 -1L 18.9995 1ZM 2.45345 25.7C 1.11108 21.4314 0.885405 16.8824 2.43287 12.859L 0.566183 12.141C -1.18671 16.6985 -0.891408 21.7305 0.545569 26.3L 2.45345 25.7ZM 10.7066 38.2929C 10.0435 37.6299 9.42502 36.9811 8.83366 36.3285L 7.35172 37.6715C 7.96012 38.3427 8.61247 39.0271 9.29242 39.7071L 10.7066 38.2929Z"/>
</defs>
</svg>
