<svg width="92" height="146" viewBox="0 0 92 146" version="1.1" xmlns="http://www.w3.org/2000/svg" xmlns:xlink="http://www.w3.org/1999/xlink">
<title>&#208;&#183;&#208;&#176;&#208;&#188;&#208;&#190;&#209;&#128;&#208;&#190;&#208;&#183;&#208;&#186;&#208;&#176;</title>
<desc>Created using Figma</desc>
<g id="Canvas" transform="matrix(2 0 0 2 -3622 -3748)">
<g id="&#208;&#183;&#208;&#176;&#208;&#188;&#208;&#190;&#209;&#128;&#208;&#190;&#208;&#183;&#208;&#186;&#208;&#176;">
<g id="Vector 7">
<use xlink:href="#path0_stroke" transform="translate(1812.5 1875.5)" fill="#31AF31"/>
</g>
<g id="Vector 8">
<use xlink:href="#path1_stroke" transform="translate(1827 1905)" fill="#31AF31"/>
</g>
</g>
</g>
<defs>
<path id="path0_stroke" d="M 9.5 44.5L 8.5 44.5L 8.5 45.244L 9.21265 45.4578L 9.5 44.5ZM 22.5 69.5L 22.4395 68.5018L 22.5 69.5ZM 0 50.5L -1 50.5L -1 50.6468L -0.957826 50.7873L 0 50.5ZM 9.5 26L 10.5 26L 9.5 26ZM 22.9965 58.083C 23.0832 57.0189 22.9948 55.1861 22.4725 53.37C 21.9442 51.5762 20.8617 49.552 19.1 48.2L 17.9 49.8C 19.3383 50.848 20.0892 52.3238 20.5525 53.93C 21.0219 55.5139 21.0835 56.9811 21.0035 57.917L 22.9965 58.083ZM 19.1 48.2C 15.785 45.7255 11.4911 44.0541 9.78735 43.5422L 9.21265 45.4578C 10.8422 45.9459 14.815 47.4745 17.9 49.8L 19.1 48.2ZM 10.5 10C 10.5 9.31943 10.8527 8.54963 11.4247 7.92572C 12.0175 7.27897 12.6451 7 13 7L 13 5C 11.8549 5 10.7325 5.72103 9.95035 6.57428C 9.14726 7.45037 8.5 8.68057 8.5 10L 10.5 10ZM 13 7C 13.5614 7 14.3388 7.19535 14.9528 7.66762C 15.5264 8.10889 16 8.81947 16 10L 18 10C 18 8.18053 17.2236 6.89111 16.1722 6.08238C 15.1612 5.30465 13.9386 5 13 5L 13 7ZM 16 10C 16 12.4 16 21.6667 16 26L 18 26C 18 21.6667 18 12.4 18 10L 16 10ZM 18 26L 18 10L 16 10L 16 26L 18 26ZM 18 10C 18 8.83333 18 6.1 18 4.5L 16 4.5C 16 6.1 16 8.83333 16 10L 18 10ZM 18 4.5C 18 3.80653 18.3638 2.91438 19.0453 2.18045C 19.7172 1.45688 20.5922 1 21.5 1L 21.5 -1C 19.9078 -1 18.5328 -0.206882 17.5797 0.819549C 16.6362 1.83562 16 3.19347 16 4.5L 18 4.5ZM 21.5 1C 22.4078 1 23.2828 1.45688 23.9547 2.18045C 24.6362 2.91438 25 3.80653 25 4.5L 27 4.5C 27 3.19347 26.3638 1.83562 25.4203 0.819549C 24.4672 -0.206882 23.0922 -1 21.5 -1L 21.5 1ZM 25 4.5C 25 5.00692 25 7.30056 25 10.5L 27 10.5C 27 7.30056 27 5.00692 27 4.5L 25 4.5ZM 25 10.5C 25 17.399 25 28.5098 25 35L 27 35C 27 28.5098 27 17.399 27 10.5L 25 10.5ZM 27 35L 27 10.5L 25 10.5L 25 35L 27 35ZM 26.9762 10.7169C 27.1277 10.0265 27.4551 9.08404 28.0434 8.26218C 28.6134 7.45045 29.2665 7 30 7L 30 5C 28.3335 5 27.1533 6.04955 26.4066 7.11282C 25.6783 8.16596 25.2057 9.47351 25.0238 10.2831L 26.9762 10.7169ZM 30 7C 31.1283 7 31.9869 7.55321 32.5941 8.3122C 33.2267 9.10285 33.5 10.0132 33.5 10.5L 35.5 10.5C 35.5 9.48676 35.0233 8.14715 34.1559 7.0628C 33.2631 5.94679 31.8717 5 30 5L 30 7ZM 33.5 10.5C 33.5 10.9608 33.5 13.5504 33.5 17L 35.5 17C 35.5 13.5504 35.5 10.9608 35.5 10.5L 33.5 10.5ZM 35.5 35L 35.5 19L 33.5 19L 33.5 35L 35.5 35ZM 35.5 19L 35.5 17L 33.5 17L 33.5 19L 35.5 19ZM 33.5 17C 33.5 17.6398 33.5 18.3091 33.5 19L 35.5 19C 35.5 18.3091 35.5 17.6398 35.5 17L 33.5 17ZM 33.5 19C 33.5 24.2835 33.5 30.8237 33.5 35L 35.5 35C 35.5 30.8237 35.5 24.2835 35.5 19L 33.5 19ZM 35.4191 19.3939C 35.6404 18.8719 36.0563 18.1658 36.7286 17.5352C 37.3776 16.9146 38.1429 16.5 39 16.5L 39 14.5C 37.4571 14.5 36.2224 15.2521 35.3464 16.0898C 34.4937 16.9175 33.8596 17.9614 33.5809 18.6061L 35.4191 19.3939ZM 39 16.5C 40.1837 16.5 40.9089 16.9778 41.3568 17.5152C 41.8425 18.0981 42 18.7498 42 19L 44 19C 44 18.2502 43.6575 17.1519 42.8932 16.2348C 42.0911 15.2722 40.8163 14.5 39 14.5L 39 16.5ZM 42 19C 42 20 42 46.5 42 50.5L 44 50.5C 44 46.5 44 20 44 19L 42 19ZM 42 50.5C 42 52.2802 41.0722 56.5721 38.1346 60.5289C 35.2339 64.436 30.3719 68.0211 22.4395 68.5018L 22.5605 70.4982C 31.1281 69.9789 36.5161 66.064 39.7404 61.7211C 42.9278 57.4279 44 52.7198 44 50.5L 42 50.5ZM 22.4395 68.5018C 16.2244 68.8785 11.3715 65.9893 7.78323 62.12C 4.15403 58.2241 1.93402 53.4761 0.957826 50.2127L -0.957826 50.7873C 0.0659779 54.1905 2.49597 59.3425 6.31677 63.48C 10.1785 67.6441 15.5756 70.9215 22.5605 70.4982L 22.4395 68.5018ZM 1 50.5C 1 43 1 27.6 1 26L -1 26C -1 27.6 -1 43 -1 50.5L 1 50.5ZM 1 26C 1 24.6261 2.47541 23 4.5 23L 4.5 21C 1.52459 21 -1 23.3739 -1 26L 1 26ZM 10.5 44.5C 10.5 39.6401 10.5 32.5194 10.5 26L 8.5 26C 8.5 32.5194 8.5 39.6401 8.5 44.5L 10.5 44.5ZM 10.5 26C 10.5 17.987 10.5 10.8822 10.5 10L 8.5 10C 8.5 10.8822 8.5 17.987 8.5 26L 10.5 26ZM 4.5 23C 5.64182 23 6.67075 23.2323 7.3828 23.7071C 8.03733 24.1434 8.5 24.8286 8.5 26L 10.5 26C 10.5 24.1714 9.71267 22.8566 8.4922 22.0429C 7.32925 21.2677 5.85818 21 4.5 21L 4.5 23Z"/>
<path id="path1_stroke" d="M 2.5 5.5L 2.5 6.5L 3.5 6.5L 3.5 5.5L 2.5 5.5ZM 1.5 0L 1.5 5.5L 3.5 5.5L 3.5 0L 1.5 0ZM 2.5 4.5L 0 4.5L 0 6.5L 2.5 6.5L 2.5 4.5ZM 0 6.5L 22.5 6.5L 22.5 4.5L 0 4.5L 0 6.5Z"/>
</defs>
</svg>
