<svg width="90" height="142" viewBox="0 0 90 142" version="1.1" xmlns="http://www.w3.org/2000/svg" xmlns:xlink="http://www.w3.org/1999/xlink">
<title>&#209;&#129;&#208;&#176;&#209;&#131;&#208;&#189;&#208;&#176;</title>
<desc>Created using Figma</desc>
<g id="Canvas" transform="matrix(2 0 0 2 -4150 -3750)">
<g id="&#209;&#129;&#208;&#176;&#209;&#131;&#208;&#189;&#208;&#176;">
<g id="Vector 9">
<use xlink:href="#path0_stroke" transform="translate(2075 1875.5)" fill="#31AF31"/>
</g>
<g id="Ellipse 4">
<use xlink:href="#path1_stroke" transform="translate(2076 1887)" fill="#31AF31"/>
</g>
</g>
</g>
<defs>
<path id="path0_stroke" d="M 6.5 50L 5.5 50L 5.5 51L 6.5 51L 6.5 50ZM 20 50L 20.9203 49.6089L 20.6616 49L 20 49L 20 50ZM 5.5 31L 5.5 50L 7.5 50L 7.5 31L 5.5 31ZM 6.5 51L 20 51L 20 49L 6.5 49L 6.5 51ZM 19.0797 50.3911L 27.5797 70.3911L 29.4203 69.6089L 20.9203 49.6089L 19.0797 50.3911ZM 0 58L 16.5 58L 16.5 56L 0 56L 0 58ZM 32.1056 0.447214C 32.7277 1.69156 34 5.10276 34 8.5L 36 8.5C 36 4.69725 34.6056 0.975105 33.8944 -0.447214L 32.1056 0.447214ZM 34 8.5C 34.0363 16.7331 31.0616 21.6545 30.0136 27.8356L 31.9864 28.1644C 32.9384 22.3455 35.9637 17.2669 36 8.5L 34 8.5ZM 30.0136 27.8356C 29.8061 29.1012 29.8029 30.5378 29.8529 31.7419C 29.9037 32.9519 30.0011 33.9642 30 34.5L 32 34.5C 31.9989 33.8691 31.899 32.8151 31.8512 31.6586C 31.8025 30.4962 31.7993 29.2662 31.9864 28.1644L 30.0136 27.8356ZM 40.6258 0.485643C 41.4324 1.93739 43 5.55632 43 8.5L 45 8.5C 45 5.04368 43.2343 1.06261 42.3742 -0.485643L 40.6258 0.485643ZM 43 8.5C 43 9.39264 42.7695 10.9591 42.392 12.9805C 42.0193 14.9764 41.5213 17.3259 41.0209 19.7341C 40.0311 24.4975 39 29.6213 39 32.5L 41 32.5C 41 29.8787 41.9689 25.0025 42.9791 20.1409C 43.4787 17.7366 43.9807 15.3673 44.358 13.3477C 44.7305 11.3534 45 9.60736 45 8.5L 43 8.5ZM 39 32.5C 39 37.1012 41.0631 43.3503 42.0715 45.8714L 43.9285 45.1286C 42.9369 42.6497 41 36.6988 41 32.5L 39 32.5Z"/>
<path id="path1_stroke" d="M 14 7.5C 14 11.0899 11.0899 14 7.5 14L 7.5 16C 12.1944 16 16 12.1944 16 7.5L 14 7.5ZM 7.5 14C 3.91015 14 1 11.0899 1 7.5L -1 7.5C -1 12.1944 2.80558 16 7.5 16L 7.5 14ZM 1 7.5C 1 3.91015 3.91015 1 7.5 1L 7.5 -1C 2.80558 -1 -1 2.80558 -1 7.5L 1 7.5ZM 7.5 1C 11.0899 1 14 3.91015 14 7.5L 16 7.5C 16 2.80558 12.1944 -1 7.5 -1L 7.5 1Z"/>
</defs>
</svg>
