<svg width="164" height="146" viewBox="0 0 164 146" version="1.1" xmlns="http://www.w3.org/2000/svg" xmlns:xlink="http://www.w3.org/1999/xlink">
<title>&#209;&#129;&#208;&#191;&#208;&#190;&#209;&#128;&#209;&#130;&#208;&#184;&#208;&#178;&#208;&#189;&#209;&#139;&#208;&#185; &#208;&#188;&#208;&#176;&#209;&#129;&#209;&#129;&#208;&#176;&#208;&#182;</title>
<desc>Created using Figma</desc>
<g id="Canvas" transform="matrix(2 0 0 2 -3618 -4354)">
<g id="&#209;&#129;&#208;&#191;&#208;&#190;&#209;&#128;&#209;&#130;&#208;&#184;&#208;&#178;&#208;&#189;&#209;&#139;&#208;&#185; &#208;&#188;&#208;&#176;&#209;&#129;&#209;&#129;&#208;&#176;&#208;&#182;">
<g id="Ellipse 2">
<use xlink:href="#path0_stroke" transform="translate(1855.42 2178)" fill="#31AF31"/>
</g>
<g id="Ellipse 2">
<use xlink:href="#path1_stroke" transform="translate(1861.18 2183.68)" fill="#31AF31"/>
</g>
<g id="Ellipse 2">
<use xlink:href="#path2_stroke" transform="translate(1868.39 2190.78)" fill="#31AF31"/>
</g>
<g id="Vector 2">
<use xlink:href="#path3_stroke" transform="translate(1810 2187.94)" fill="#31AF31"/>
</g>
</g>
</g>
<defs>
<path id="path0_stroke" d="M 33.5811 17.037C 33.5811 25.88 26.3015 33.0739 17.2905 33.0739L 17.2905 35.0739C 27.3781 35.0739 35.5811 27.0124 35.5811 17.037L 33.5811 17.037ZM 17.2905 33.0739C 8.27954 33.0739 1 25.88 1 17.037L -1 17.037C -1 27.0124 7.20293 35.0739 17.2905 35.0739L 17.2905 33.0739ZM 1 17.037C 1 8.19387 8.27954 1 17.2905 1L 17.2905 -1C 7.20293 -1 -1 7.06154 -1 17.037L 1 17.037ZM 17.2905 1C 26.3015 1 33.5811 8.19387 33.5811 17.037L 35.5811 17.037C 35.5811 7.06154 27.3781 -1 17.2905 -1L 17.2905 1Z"/>
<path id="path1_stroke" d="M 22.054 11.358C 22.054 17.0646 17.3549 21.7159 11.527 21.7159L 11.527 23.7159C 18.4315 23.7159 24.054 18.197 24.054 11.358L 22.054 11.358ZM 11.527 21.7159C 5.69913 21.7159 1 17.0646 1 11.358L -1 11.358C -1 18.197 4.62252 23.7159 11.527 23.7159L 11.527 21.7159ZM 1 11.358C 1 5.6513 5.69913 1 11.527 1L 11.527 -1C 4.62252 -1 -1 4.51898 -1 11.358L 1 11.358ZM 11.527 1C 17.3549 1 22.054 5.6513 22.054 11.358L 24.054 11.358C 24.054 4.51898 18.4315 -1 11.527 -1L 11.527 1Z"/>
<path id="path2_stroke" d="M 7.64526 4.25924C 7.64526 6.04539 6.17165 7.51848 4.32263 7.51848L 4.32263 9.51848C 7.24826 9.51848 9.64526 7.17771 9.64526 4.25924L 7.64526 4.25924ZM 4.32263 7.51848C 2.47361 7.51848 1 6.04539 1 4.25924L -1 4.25924C -1 7.17771 1.397 9.51848 4.32263 9.51848L 4.32263 7.51848ZM 1 4.25924C 1 2.47309 2.47361 1 4.32263 1L 4.32263 -1C 1.397 -1 -1 1.34076 -1 4.25924L 1 4.25924ZM 4.32263 1C 6.17165 1 7.64526 2.47309 7.64526 4.25924L 9.64526 4.25924C 9.64526 1.34076 7.24826 -1 4.32263 -1L 4.32263 1Z"/>
<path id="path3_stroke" d="M 3.63363 25.5554L 2.80539 26.1158L 3.63363 25.5554ZM 15.1607 32.6542L 16.1021 32.317L 15.9492 31.8901L 15.5274 31.7238L 15.1607 32.6542ZM 28.849 51.8207L 28.2855 52.6468L 28.849 51.8207ZM 47.5804 61.0491L 47.4184 60.0623L 47.5804 61.0491ZM 64.1505 37.6233L 65.1232 37.8555L 64.1505 37.6233ZM 27.408 7.80861L 26.5635 8.34424L 26.5635 8.34424L 27.408 7.80861ZM 43.2578 24.8456L 42.4481 25.4325L 43.2578 24.8456ZM -0.966283 10.5806C -1.08861 12.4297 -0.855721 15.2922 -0.25295 18.1372C 0.352316 20.9759 1.38142 23.9951 2.80539 26.1158L 4.46187 24.9951C 3.17306 23.1063 2.281 20.4466 1.70333 17.7213C 1.12316 15.0023 0.911338 12.4158 1.02915 10.7156L -0.966283 10.5806ZM 2.80539 26.1158C 4.36799 28.3927 6.84968 30.0855 9.12579 31.2394C 11.4158 32.3949 13.6204 33.1215 14.794 33.5845L 15.5274 31.7238C 14.2994 31.2403 12.1815 30.5472 10.0287 29.4548C 7.86213 28.3607 5.78103 26.9774 4.46187 24.9951L 2.80539 26.1158ZM 14.2193 32.9914C 15.6801 37.0698 20.525 47.353 28.2855 52.6468L 29.4125 50.9946C 22.1879 46.0663 17.523 36.2838 16.1021 32.317L 14.2193 32.9914ZM 28.2855 52.6468C 33.0094 55.8678 37.4046 58.2745 40.7674 59.8274C 42.4587 60.6077 43.932 61.1913 45.0537 61.5564C 45.6235 61.7413 46.1451 61.8823 46.5515 61.9634C 46.9439 62.0413 47.3747 62.0963 47.7425 62.0359L 47.4184 60.0623C 47.4785 60.0451 47.2557 60.0659 46.9405 60.0016C 46.6012 59.935 46.1941 59.8245 45.672 59.6544C 44.6098 59.3097 43.2464 58.7693 41.6056 58.0115C 38.3044 56.4883 34.0543 54.1625 29.4125 50.9946L 28.2855 52.6468ZM 47.7425 62.0359C 49.0981 61.8133 50.6659 60.8674 52.2312 59.5519C 53.8062 58.226 55.5482 56.371 57.2015 54.2011C 60.4883 49.878 63.644 44.0136 65.1232 37.8555L 63.1779 37.391C 61.7753 43.3008 58.8072 48.7944 55.6101 52.9898C 54.0214 55.0791 52.4314 56.7735 50.9445 58.0208C 49.4479 59.2786 48.224 59.93 47.4184 60.0623L 47.7425 62.0359ZM 65.1232 37.8555C 67.4278 28.2043 68.4826 23.9045 68.7218 22.9619L 66.7833 22.47C 66.5421 23.4203 65.484 27.7337 63.1779 37.391L 65.1232 37.8555ZM 49.6524 29.9376C 47.5943 32.7767 44.0864 38.0394 43.0863 40.0103L 44.8698 40.9153C 45.7909 39.1002 49.2131 33.9513 51.2717 31.1115L 49.6524 29.9376ZM 28.2524 7.27297C 26.3548 4.28128 23.2347 2.52466 20.2595 1.37232C 17.279 0.221808 14.3356 -0.375233 12.591 -0.950067L 11.9669 0.950067C 13.8245 1.55836 16.7176 2.14141 19.5371 3.23732C 22.3619 4.33139 25.0052 5.88751 26.5635 8.34424L 28.2524 7.27297ZM 44.8698 40.9153C 45.7854 39.1109 46.536 36.2988 46.5989 33.2962C 46.6555 30.3204 45.976 26.9315 44.0674 24.2586L 42.4481 25.4325C 44.1418 27.7287 44.6629 30.492 44.5994 33.2544C 44.5421 35.9899 43.8517 38.5019 43.0863 40.0103L 44.8698 40.9153ZM 34.1687 25.4793C 34.054 23.9818 33.6585 20.8984 32.8006 17.5014L 30.8617 17.9922C 31.6936 21.2712 32.0644 24.1848 32.1746 25.6316L 34.1687 25.4793ZM 32.8006 17.5014C 31.9887 14.3118 30.0203 10.0641 28.2524 7.27297L 26.5635 8.34424C 28.265 11.0226 30.104 14.981 30.8617 17.9922L 32.8006 17.5014ZM 44.0674 24.2586C 42.1063 21.5695 40.1237 20.0006 38.1785 19.0007C 36.2143 18.0037 34.2237 17.4972 32.1499 16.799L 31.5124 18.6947C 33.6607 19.4163 35.5107 19.8758 37.268 20.7815C 39.0443 21.6843 40.6639 22.955 42.4481 25.4325L 44.0674 24.2586ZM 51.2717 31.1115C 52.2648 29.7384 54.0193 27.8392 55.5551 26.2504C 56.3216 25.4573 57.0217 24.755 57.5342 24.2469C 57.7897 23.9935 57.9962 23.7909 58.1401 23.6503C 58.2117 23.5803 58.2669 23.5266 58.3048 23.4899C 58.3235 23.4716 58.3376 23.458 58.3472 23.4487C 58.3519 23.4441 58.3554 23.4408 58.3578 23.4385C 58.3589 23.4373 58.3597 23.4365 58.3603 23.436C 58.3606 23.4357 58.3608 23.4356 58.3609 23.4354C 58.361 23.4354 58.361 23.4353 58.361 23.4353C 58.361 23.4353 58.361 23.4353 57.6664 22.7159C 56.9718 21.9966 56.9717 21.9966 56.9717 21.9967C 56.9716 21.9967 56.9715 21.9968 56.9714 21.9969C 56.9712 21.9971 56.9709 21.9974 56.9706 21.9977C 56.9699 21.9984 56.9689 21.9994 56.9675 22.0007C 56.965 22.0031 56.961 22.007 56.956 22.0119C 56.946 22.0215 56.9309 22.0361 56.9115 22.055C 56.8729 22.0925 56.8155 22.1483 56.7424 22.2198C 56.5968 22.362 56.3852 22.5697 56.1261 22.8266C 55.6094 23.3389 54.8943 24.0563 54.117 24.8605C 52.5652 26.4661 50.7175 28.4712 49.6524 29.9376L 51.2717 31.1115Z"/>
</defs>
</svg>
