<svg width="136" height="204" viewBox="0 0 136 204" version="1.1" xmlns="http://www.w3.org/2000/svg" xmlns:xlink="http://www.w3.org/1999/xlink">
<title>&#209;&#128;&#208;&#176;&#209;&#129;&#209;&#129;&#208;&#187;&#208;&#176;&#208;&#177;&#208;&#187;&#209;&#143;&#209;&#142;&#209;&#137;&#208;&#184;&#208;&#185;</title>
<desc>Created using Figma</desc>
<g id="Canvas" transform="matrix(2 0 0 2 -3890 -4306)">
<g id="&#209;&#128;&#208;&#176;&#209;&#129;&#209;&#129;&#208;&#187;&#208;&#176;&#208;&#177;&#208;&#187;&#209;&#143;&#209;&#142;&#209;&#137;&#208;&#184;&#208;&#185;">
<g id="Ellipse 6">
<use xlink:href="#path0_stroke" transform="translate(1987 2228)" fill="#31AF31"/>
</g>
<g id="Vector 13">
<use xlink:href="#path1_stroke" transform="translate(1981.07 2209.88)" fill="#31AF31"/>
</g>
<g id="Vector 13">
<use xlink:href="#path2_stroke" transform="matrix(0.258819 0.965926 -0.965926 0.258819 2009.44 2217)" fill="#31AF31"/>
</g>
<g id="Vector 13">
<use xlink:href="#path3_stroke" transform="matrix(-0.866025 0.5 -0.5 -0.866025 2010.86 2246.43)" fill="#31AF31"/>
</g>
<g id="Vector 13">
<use xlink:href="#path4_stroke" transform="matrix(-0.866025 -0.5 0.5 -0.866025 1985.8 2255.4)" fill="#31AF31"/>
</g>
<g id="Vector 13">
<use xlink:href="#path5_stroke" transform="matrix(0.258819 -0.965926 0.965926 0.258819 1966.97 2235.84)" fill="#31AF31"/>
</g>
<g id="Vector 13">
<use xlink:href="#path6_stroke" transform="translate(1946 2154)" fill="#31AF31"/>
</g>
</g>
</g>
<defs>
<path id="path0_stroke" d="M 6 3.5C 6 4.88071 4.88071 6 3.5 6L 3.5 8C 5.98528 8 8 5.98528 8 3.5L 6 3.5ZM 3.5 6C 2.11929 6 1 4.88071 1 3.5L -1 3.5C -1 5.98528 1.01472 8 3.5 8L 3.5 6ZM 1 3.5C 1 2.11929 2.11929 1 3.5 1L 3.5 -1C 1.01472 -1 -1 1.01472 -1 3.5L 1 3.5ZM 3.5 1C 4.88071 1 6 2.11929 6 3.5L 8 3.5C 8 1.01472 5.98528 -1 3.5 -1L 3.5 1Z"/>
<path id="path1_stroke" d="M 5.87767 20.4571C 6.3372 20.7634 6.95807 20.6392 7.26442 20.1797C 7.57078 19.7202 7.4466 19.0993 6.98707 18.7929L 5.87767 20.4571ZM 0.43248 12.125L -0.543707 12.3419L 0.43248 12.125ZM 15.0583 7.61064C 15.3265 8.09343 15.9353 8.26737 16.4181 7.99916C 16.9009 7.73094 17.0749 7.12214 16.8066 6.63936L 15.0583 7.61064ZM 6.98707 18.7929C 4.94719 17.433 2.31023 15.9651 1.40867 11.9081L -0.543707 12.3419C 0.554735 17.2849 3.91755 19.1503 5.87767 20.4571L 6.98707 18.7929ZM 1.40867 11.9081C 0.879963 9.55642 0.881137 7.38837 1.25343 5.53762C 1.61968 3.6927 2.31949 2.45974 3.03248 1.925L 1.83248 0.325C 0.545467 1.29026 -0.301263 3.09784 -0.708289 5.14819C -1.10927 7.19271 -1.1081 9.77466 -0.543707 12.3419L 1.40867 11.9081ZM 3.03248 1.925C 4.62505 0.730573 7.18898 0.621285 9.98527 2.01943L 10.8797 0.230573C 7.67598 -1.37128 4.23991 -1.48057 1.83248 0.325L 3.03248 1.925ZM 9.98527 2.01943C 11.001 2.52731 12.0617 3.52704 13.0024 4.6535C 13.9355 5.76787 14.6582 6.88937 15.0583 7.61064L 16.8066 6.63936C 16.3734 5.86063 15.5461 4.58213 14.5375 3.3715C 13.5366 2.17296 12.2639 0.922689 10.8797 0.230573L 9.98527 2.01943Z"/>
<path id="path2_stroke" d="M 5.55688 20.524C 6.01641 20.8304 6.63728 20.7062 6.94363 20.2467C 7.24999 19.7872 7.12581 19.1663 6.66628 18.8599L 5.55688 20.524ZM 0.43248 12.125L -0.543707 12.3419L 0.43248 12.125ZM 15.0583 7.61064C 15.3265 8.09343 15.9353 8.26737 16.4181 7.99916C 16.9009 7.73094 17.0749 7.12214 16.8066 6.63936L 15.0583 7.61064ZM 6.66628 18.8599C 4.69861 17.5482 2.31859 16.0027 1.40867 11.9081L -0.543707 12.3419C 0.546373 17.2473 3.52456 19.1692 5.55688 20.524L 6.66628 18.8599ZM 1.40867 11.9081C 0.879963 9.55642 0.881137 7.38837 1.25343 5.53762C 1.61968 3.6927 2.31949 2.45974 3.03248 1.925L 1.83248 0.325C 0.545467 1.29026 -0.301263 3.09784 -0.708289 5.14819C -1.10927 7.19271 -1.1081 9.77466 -0.543707 12.3419L 1.40867 11.9081ZM 3.03248 1.925C 4.62505 0.730573 7.18898 0.621285 9.98527 2.01943L 10.8797 0.230573C 7.67598 -1.37128 4.23991 -1.48057 1.83248 0.325L 3.03248 1.925ZM 9.98527 2.01943C 11.001 2.52731 12.0617 3.52704 13.0024 4.6535C 13.9355 5.76787 14.6582 6.88937 15.0583 7.61064L 16.8066 6.63936C 16.3734 5.86063 15.5461 4.58213 14.5375 3.3715C 13.5366 2.17296 12.2639 0.922689 10.8797 0.230573L 9.98527 2.01943Z"/>
<path id="path3_stroke" d="M 7.08244 21.3248C 7.54197 21.6312 8.16284 21.507 8.46919 21.0475C 8.77554 20.588 8.65137 19.9671 8.19184 19.6607L 7.08244 21.3248ZM 0.43248 12.125L -0.543707 12.3419L 0.43248 12.125ZM 15.0583 7.61064C 15.3265 8.09343 15.9353 8.26737 16.4181 7.99916C 16.9009 7.73094 17.0749 7.12214 16.8066 6.63936L 15.0583 7.61064ZM 8.19184 19.6607C 6.09644 18.2638 2.30517 15.9423 1.40867 11.9081L -0.543707 12.3419C 0.55979 17.3077 5.17783 20.0551 7.08244 21.3248L 8.19184 19.6607ZM 1.40867 11.9081C 0.879963 9.55642 0.881137 7.38837 1.25343 5.53762C 1.61968 3.6927 2.31949 2.45974 3.03248 1.925L 1.83248 0.325C 0.545467 1.29026 -0.301263 3.09784 -0.708289 5.14819C -1.10927 7.19271 -1.1081 9.77466 -0.543707 12.3419L 1.40867 11.9081ZM 3.03248 1.925C 4.62505 0.730573 7.18898 0.621285 9.98527 2.01943L 10.8797 0.230573C 7.67598 -1.37128 4.23991 -1.48057 1.83248 0.325L 3.03248 1.925ZM 9.98527 2.01943C 11.001 2.52731 12.0617 3.52704 13.0024 4.6535C 13.9355 5.76787 14.6582 6.88937 15.0583 7.61064L 16.8066 6.63936C 16.3734 5.86063 15.5461 4.58213 14.5375 3.3715C 13.5366 2.17296 12.2639 0.922689 10.8797 0.230573L 9.98527 2.01943Z"/>
<path id="path4_stroke" d="M 6.00364 20.5957C 6.46317 20.9021 7.08404 20.7779 7.39039 20.3184C 7.69675 19.8589 7.57257 19.238 7.11304 18.9316L 6.00364 20.5957ZM 0.43248 12.125L -0.543707 12.3419L 0.43248 12.125ZM 15.0583 7.61064C 15.3265 8.09343 15.9353 8.26737 16.4181 7.99916C 16.9009 7.73094 17.0749 7.12214 16.8066 6.63936L 15.0583 7.61064ZM 7.11304 18.9316C 5.07503 17.573 2.31041 15.9659 1.40867 11.9081L -0.543707 12.3419C 0.554546 17.2841 4.04166 19.2877 6.00364 20.5957L 7.11304 18.9316ZM 1.40867 11.9081C 0.879963 9.55642 0.881137 7.38837 1.25343 5.53762C 1.61968 3.6927 2.31949 2.45974 3.03248 1.925L 1.83248 0.325C 0.545467 1.29026 -0.301263 3.09784 -0.708289 5.14819C -1.10927 7.19271 -1.1081 9.77466 -0.543707 12.3419L 1.40867 11.9081ZM 3.03248 1.925C 4.62505 0.730573 7.18898 0.621285 9.98527 2.01943L 10.8797 0.230573C 7.67598 -1.37128 4.23991 -1.48057 1.83248 0.325L 3.03248 1.925ZM 9.98527 2.01943C 11.001 2.52731 12.0617 3.52704 13.0024 4.6535C 13.9355 5.76787 14.6582 6.88937 15.0583 7.61064L 16.8066 6.63936C 16.3734 5.86063 15.5461 4.58213 14.5375 3.3715C 13.5366 2.17296 12.2639 0.922689 10.8797 0.230573L 9.98527 2.01943Z"/>
<path id="path5_stroke" d="M 6.37778 20.9571C 6.83731 21.2634 7.45818 21.1392 7.76453 20.6797C 8.07088 20.2202 7.94671 19.5993 7.48718 19.2929L 6.37778 20.9571ZM 0.43248 12.125L -0.543707 12.3419L 0.43248 12.125ZM 15.0583 7.61064C 15.3265 8.09343 15.9353 8.26737 16.4181 7.99916C 16.9009 7.73094 17.0749 7.12214 16.8066 6.63936L 15.0583 7.61064ZM 7.48718 19.2929C 5.44573 17.932 2.31007 15.9644 1.40867 11.9081L -0.543707 12.3419C 0.554893 17.2856 4.41923 19.6513 6.37778 20.9571L 7.48718 19.2929ZM 1.40867 11.9081C 0.879963 9.55642 0.881137 7.38837 1.25343 5.53762C 1.61968 3.6927 2.31949 2.45974 3.03248 1.925L 1.83248 0.325C 0.545467 1.29026 -0.301263 3.09784 -0.708289 5.14819C -1.10927 7.19271 -1.1081 9.77466 -0.543707 12.3419L 1.40867 11.9081ZM 3.03248 1.925C 4.62505 0.730573 7.18898 0.621285 9.98527 2.01943L 10.8797 0.230573C 7.67598 -1.37128 4.23991 -1.48057 1.83248 0.325L 3.03248 1.925ZM 9.98527 2.01943C 11.001 2.52731 12.0617 3.52704 13.0024 4.6535C 13.9355 5.76787 14.6582 6.88937 15.0583 7.61064L 16.8066 6.63936C 16.3734 5.86063 15.5461 4.58213 14.5375 3.3715C 13.5366 2.17296 12.2639 0.922689 10.8797 0.230573L 9.98527 2.01943Z"/>
<path id="path6_stroke" d="M 17.5002 0L 18.3504 -0.526355L 16.6499 -0.526355L 17.5002 0ZM 11.0001 15L 11.9901 15.1414L 11.0001 15ZM 11.7931 22.7071C 12.1836 23.0976 12.8168 23.0976 13.2073 22.7071C 13.5978 22.3166 13.5978 21.6834 13.2073 21.2929L 11.7931 22.7071ZM 24.0002 15L 23.0103 15.1414L 24.0002 15ZM 21.7931 21.2929C 21.4025 21.6834 21.4025 22.3166 21.793 22.7071C 22.1836 23.0976 22.8167 23.0976 23.2073 22.7071L 21.7931 21.2929ZM 18.5002 17.5C 18.5002 16.9477 18.0525 16.5 17.5002 16.5C 16.9479 16.5 16.5002 16.9477 16.5002 17.5L 18.5002 17.5ZM 0 35.5L -0.668965 34.7567L -1 35.5L 0 35.5ZM 11.0001 38L 10.9096 38.9959L 11.0001 38ZM 26.6644 38.9864C 27.2092 38.8956 27.5772 38.3804 27.4864 37.8356C 27.3956 37.2908 26.8804 36.9228 26.3356 37.0136L 26.6644 38.9864ZM 0 94.5L -1 94.5L -0.5547 95.3321L 0 94.5ZM 24.0002 98.5C 24.5525 98.5 25.0002 98.0523 25.0002 97.5C 25.0002 96.9477 24.5525 96.5 24.0002 96.5L 24.0002 98.5ZM 36 35.5L 37 35.5L 36.5812 34.6863L 36 35.5ZM 35 52C 35 52.5523 35.4477 53 36 53C 36.5523 53 37 52.5523 37 52L 35 52ZM 28.5 7C 27.9477 7 27.5 7.44772 27.5 8C 27.5 8.55228 27.9477 9 28.5 9L 28.5 7ZM 32 10L 32.8 9.4L 32.8 9.4L 32 10ZM 37.5 15.5L 37.1838 16.4487L 37.5 15.5ZM 39.5 17C 40.0523 17 40.5 16.5523 40.5 16C 40.5 15.4477 40.0523 15 39.5 15L 39.5 17ZM 32 1C 31.4477 1 31 1.44772 31 2C 31 2.55228 31.4477 3 32 3L 32 1ZM 65.5 11C 66.0523 11 66.5 10.5523 66.5 10C 66.5 9.44772 66.0523 9 65.5 9L 65.5 11ZM 16.6499 -0.526355C 14.5044 2.93939 10.9019 8.61631 10.0102 14.8586L 11.9901 15.1414C 12.8126 9.38369 16.1626 4.06061 18.3504 0.526355L 16.6499 -0.526355ZM 10.0102 14.8586C 9.59609 17.7571 9.95287 20.867 11.7931 22.7071L 13.2073 21.2929C 12.0473 20.133 11.6041 17.8429 11.9901 15.1414L 10.0102 14.8586ZM 16.6499 0.526355C 18.8378 4.06061 22.1878 9.38369 23.0103 15.1414L 24.9902 14.8586C 24.0984 8.61631 20.4959 2.93939 18.3504 -0.526355L 16.6499 0.526355ZM 23.0103 15.1414C 23.3962 17.8429 22.953 20.133 21.7931 21.2929L 23.2073 22.7071C 25.0475 20.867 25.4043 17.7571 24.9902 14.8586L 23.0103 15.1414ZM 16.5002 17.5L 16.5002 26L 18.5002 26L 18.5002 17.5L 16.5002 17.5ZM 17.2061 25.0442C 15.0319 25.7132 11.6208 26.8247 8.05279 28.6056L 8.94721 30.3944C 12.3792 28.6753 15.635 27.6201 17.7942 26.9558L 17.2061 25.0442ZM 8.05279 28.6056C 4.96556 30.1548 1.02365 33.2341 -0.668965 34.7567L 0.668965 36.2433C 2.30968 34.7659 6.03444 31.8452 8.94721 30.3944L 8.05279 28.6056ZM -0.341731 36.4398C 1.51843 37.1158 6.40998 38.5817 10.9096 38.9959L 11.0906 37.0041C 6.7904 36.6183 2.14837 35.2176 0.341731 34.5602L -0.341731 36.4398ZM 10.9096 38.9959C 16.4374 39.4984 23.5379 39.5075 26.6644 38.9864L 26.3356 37.0136C 23.4621 37.4925 16.5626 37.5016 11.0906 37.0041L 10.9096 38.9959ZM -1 35.5L -1 94.5L 1 94.5L 1 35.5L -1 35.5ZM -0.5547 95.3321C 0.346643 95.9329 2.36319 96.7155 4.95054 97.3465C 7.55531 97.9809 10.9237 98.4971 14.5 98.5L 14.5 96.5C 11.0763 96.5029 7.94469 96.0191 5.42446 95.4035C 2.88681 94.7845 1.15336 94.0671 0.5547 93.6679L -0.5547 95.3321ZM 14.5 98.5C 18.9 98.5 20.1669 98.5 24.0002 98.5L 24.0002 96.5C 20.1669 96.5 18.9 96.5 14.5 96.5L 14.5 98.5ZM 17.1839 26.9487C 19.7332 27.797 22.6654 28.4424 26.5528 30.3944L 27.4472 28.6056C 23.3346 26.5576 20.2671 25.8696 17.8164 25.0513L 17.1839 26.9487ZM 26.5528 30.3944C 30.4426 32.3303 33.046 34.6174 35.4188 36.3137L 36.5812 34.6863C 34.2873 33.0492 31.5574 30.6697 27.4472 28.6056L 26.5528 30.3944ZM 35 35.5L 35 52L 37 52L 37 35.5L 35 35.5ZM 28.5 9C 28.8922 9 30.2118 9.28235 31.2 10.6L 32.8 9.4C 31.3882 7.51765 29.4412 7 28.5 7L 28.5 9ZM 31.2 10.6C 31.9595 11.6124 32.9949 12.9056 34.0218 13.9979C 34.5378 14.5457 35.0852 15.0752 35.5862 15.4855C 36.0844 15.8923 36.6347 16.2657 37.1838 16.4487L 37.8162 14.5513C 37.6153 14.4843 37.2906 14.2952 36.8513 13.9364C 36.4148 13.5811 35.9622 13.1418 35.4782 12.6271C 34.5051 11.5944 33.5405 10.3876 32.8 9.4L 31.2 10.6ZM 37.1838 16.4487C 38.3891 16.8505 39.1572 17 39.5 17L 39.5 15C 39.5884 14.9969 38.9369 14.9285 37.8162 14.5513L 37.1838 16.4487ZM 32 3C 32.6876 3 33.6151 3.02934 34.2929 3.70711L 35.7071 2.29289C 34.3849 0.970659 32.6457 1 32 1L 32 3ZM 34.2929 3.70711C 34.927 4.33908 35.8997 5.5572 36.9277 6.77439C 37.9181 7.94693 39.0527 9.23695 39.9453 9.83205L 41.0547 8.16795C 40.4473 7.76305 39.5041 6.72523 38.4556 5.48385C 37.4446 4.28712 36.4173 3.00524 35.7071 2.29289L 34.2929 3.70711ZM 39.9453 9.83205C 41.8438 11.0977 44.5969 10.8173 46.2071 9.20711L 44.7929 7.79289C 43.8536 8.73222 42.1562 8.90225 41.0547 8.16795L 39.9453 9.83205ZM 46.2071 9.20711C 46.9951 8.41692 48.023 7.13447 49.0149 5.95664C 50.0433 4.73539 50.9478 3.73662 51.5547 3.33205L 50.4453 1.66795C 49.5522 2.26338 48.4567 3.51461 47.4851 4.66836C 46.477 5.86553 45.5049 7.08308 44.7929 7.79289L 46.2071 9.20711ZM 51.5547 3.33205C 52.698 2.56984 54.1628 2.577 55.2929 3.70711L 56.7071 2.29289C 54.8372 0.422998 52.302 0.430164 50.4453 1.66795L 51.5547 3.33205ZM 55.2929 3.70711C 56.0277 4.44158 57.3947 5.93314 58.7141 7.31548C 59.3743 8.00702 60.0309 8.67944 60.5822 9.20702C 61.091 9.69367 61.641 10.1885 62.0528 10.3944L 62.9472 8.60557C 63 8.62814 62.8182 8.52402 62.6364 8.37134C 62.4448 8.21157 62.2256 8.01138 61.9647 7.76173C 61.4379 7.25806 60.8132 6.61798 60.1609 5.93452C 58.8553 4.56686 57.4723 3.05842 56.7071 2.29289L 55.2929 3.70711ZM 62.0528 10.3944C 62.6168 10.6764 63.3903 10.8159 63.9859 10.8919C 64.6139 10.9713 65.2273 10.9997 65.5 11L 65.5 9C 65.2727 9.00026 64.7861 8.97871 64.2391 8.90805C 63.6597 8.83408 63.1832 8.72355 62.9472 8.60557L 62.0528 10.3944Z"/>
</defs>
</svg>
