<svg width="390" height="488" viewBox="0 0 390 488" version="1.1" xmlns="http://www.w3.org/2000/svg" xmlns:xlink="http://www.w3.org/1999/xlink">
<title>placeholder</title>
<desc>Created using Figma</desc>
<g id="Canvas" transform="translate(64 1230)">
<g id="placeholder">
<g id="Group">
<g id="Group">
<g id="Vector">
<use xlink:href="#path0_fill" transform="translate(-64 -1230)"/>
</g>
</g>
</g>
</g>
</g>
<defs>
<path id="path0_fill" d="M 187.626 0.124134C 90.7261 3.52413 10.2261 79.1241 0.926058 175.624C -0.973942 194.924 0.12606 213.624 3.52606 231.524C 3.52606 231.524 3.82606 233.624 4.82606 237.624C 7.82606 251.024 12.3261 264.024 17.9261 276.224C 37.4261 322.424 82.5261 399.724 183.726 483.824C 189.926 489.024 199.026 489.024 205.326 483.824C 306.526 399.824 351.626 322.524 371.226 276.124C 376.926 263.924 381.326 251.024 384.326 237.524C 385.226 233.624 385.626 231.424 385.626 231.424C 387.926 219.424 389.126 207.124 389.126 194.524C 389.126 84.7241 298.226 -3.77587 187.626 0.124134ZM 194.526 291.324C 142.326 291.324 100.026 249.024 100.026 196.824C 100.026 144.624 142.326 102.324 194.526 102.324C 246.726 102.324 289.026 144.624 289.026 196.824C 289.026 249.024 246.726 291.324 194.526 291.324Z"/>
</defs>
</svg>
