<svg width="156" height="118" viewBox="0 0 156 118" version="1.1" xmlns="http://www.w3.org/2000/svg" xmlns:xlink="http://www.w3.org/1999/xlink">
<title>&#208;&#184;&#208;&#189;&#209;&#129;&#209;&#130;&#209;&#128;&#209;&#131;&#208;&#186;&#209;&#130;&#208;&#190;&#209;&#128;&#209;&#139;</title>
<desc>Created using Figma</desc>
<g id="Canvas" transform="matrix(2 0 0 2 -4946 -4430)">
<g id="&#208;&#184;&#208;&#189;&#209;&#129;&#209;&#130;&#209;&#128;&#209;&#131;&#208;&#186;&#209;&#130;&#208;&#190;&#209;&#128;&#209;&#139;">
<g id="Vector 16">
<use xlink:href="#path0_stroke" transform="translate(2474 2216)" fill="#31AF31"/>
</g>
</g>
</g>
<defs>
<path id="path0_stroke" d="M 27.02 10L 26.0261 10.1104L 27.02 10ZM 32.9698 21L 33.6325 20.2511L 32.9698 21ZM 0.0200611 26.5L 1.01661 26.4169L 0.0200611 26.5ZM 11.0201 35L 11.237 34.0238L 11.0201 35ZM 20.5201 38L 19.5916 38.3714L 20.5201 38ZM 48.02 10L 49.0139 10.1104L 48.02 10ZM 42.0702 21L 41.4074 20.2511L 42.0702 21ZM 75.0199 26.5L 74.0234 26.4169L 75.0199 26.5ZM 64.0199 35L 63.803 34.0238L 64.0199 35ZM 54.5199 38L 55.4484 38.3714L 54.5199 38ZM 37.52 -1C 33.2463 -1 30.2218 0.614452 28.3377 2.85668C 26.4795 5.0681 25.7739 7.8411 26.0261 10.1104L 28.0139 9.88956C 27.8215 8.1589 28.366 5.9319 29.8689 4.14332C 31.3459 2.38555 33.7936 1 37.52 1L 37.52 -1ZM 26.0261 10.1104C 26.5679 14.8057 28.6055 18.4544 32.3071 21.7489L 33.6325 20.2511C 30.1625 17.1991 28.4721 14.1943 28.0139 9.88956L 26.0261 10.1104ZM 32.3071 21.7489C 33.772 23.0453 35.5362 24 37.52 24L 37.52 22C 36.2014 22 34.8905 21.3643 33.6325 20.2511L 32.3071 21.7489ZM 32.3136 20.2454C 31.764 20.7241 30.8557 21.4159 29.8175 22.0068C 28.7531 22.615 27.7453 23 27.02 23L 27.02 25C 28.2946 25 29.6868 24.385 30.8098 23.7432C 31.959 23.0841 33.0257 22.2759 33.626 21.7546L 32.3136 20.2454ZM 27.02 23C 26.2666 23 25.6744 22.4945 24.751 21.5052C 23.952 20.6491 22.848 19.3458 21.2161 19.0194L 20.8239 20.9806C 21.692 21.1542 22.338 21.8509 23.2889 22.8698C 24.1155 23.7555 25.2734 25 27.02 25L 27.02 23ZM 21.2161 19.0194C 18.4403 18.4643 14.6961 19.0333 11.0238 21.1318L 12.0161 22.8682C 15.3439 20.9667 18.5997 20.5357 20.8239 20.9806L 21.2161 19.0194ZM 11.0238 21.1318C 10.8765 21.2159 10.8608 21.1913 10.9425 21.1894C 11.0741 21.1863 11.2388 21.2477 11.3486 21.3709C 11.4528 21.4878 11.3475 21.462 11.3633 20.9116C 11.3905 19.9658 11.7306 18.434 12.2302 16.7168C 12.7226 15.0228 13.3347 13.2637 13.861 11.8786C 14.1229 11.1891 14.3563 10.6112 14.5426 10.1828C 14.634 9.97226 14.7053 9.81702 14.7647 9.69922C 14.7919 9.64481 14.8045 9.62097 14.8187 9.59755C 14.8409 9.56009 14.8076 9.62662 14.7271 9.70711L 13.3129 8.29289C 13.2011 8.40463 13.1267 8.52975 13.0991 8.57637C 13.0633 8.63702 13.0171 8.72274 12.9774 8.80152C 12.903 8.95007 12.8083 9.15567 12.7083 9.3856C 12.5118 9.83803 12.2608 10.4594 11.9914 11.1683C 11.4552 12.58 10.8173 14.4147 10.3098 16.1582C 9.80932 17.8785 9.39942 19.628 9.36414 20.854C 9.34873 21.3896 9.38403 22.1724 9.85538 22.7014C 10.1488 23.0306 10.5537 23.199 10.9891 23.1888C 11.3744 23.1798 11.7259 23.0341 12.0161 22.8682L 11.0238 21.1318ZM 14.7271 9.70711C 14.4567 9.97749 14.1499 9.92982 14.1415 9.92852C 14.118 9.92968 14.1813 9.93764 14.311 9.99705C 14.5948 10.1241 14.9838 10.3495 15.4478 10.5819C 15.91 10.8126 16.5075 11.0653 17.0681 11.1778C 17.6742 11.2927 18.4073 11.277 19.0748 10.8321L 17.9654 9.16795C 17.8828 9.22296 17.7409 9.26975 17.4408 9.21283C 17.0951 9.1535 16.7551 8.99992 16.3422 8.79307C 15.9312 8.58805 15.5077 8.34465 15.1353 8.17483C 14.9368 8.0858 14.664 7.99061 14.4492 7.95234C 14.2026 7.91393 13.7083 7.89751 13.3129 8.29289L 14.7271 9.70711ZM 19.0748 10.8321C 19.8248 10.3321 20.6918 9.7408 21.3565 8.94574C 22.066 8.07857 22.5201 6.97955 22.5201 5.5L 20.5201 5.5C 20.5201 6.52045 20.2241 7.17143 19.8086 7.67926C 19.3483 8.2592 18.7154 8.66795 17.9654 9.16795L 19.0748 10.8321ZM 22.5201 5.5C 22.5201 2.49535 20.0608 -0.127961 16.8239 0.519419L 17.2162 2.48058C 18.9793 2.12796 20.5201 3.50465 20.5201 5.5L 22.5201 5.5ZM 16.8239 0.519419C 15.5826 0.767737 14.1397 1.03317 12.8147 1.49364C 11.4771 1.96181 10.1396 2.67396 9.22006 3.9L 10.8201 5.1C 11.4005 4.32604 12.313 3.78819 13.4754 3.38136C 14.6505 2.96683 15.9576 2.73226 17.2162 2.48058L 16.8239 0.519419ZM 9.22006 3.9C 8.45163 4.92539 5.78386 8.99172 3.38566 13.5332C 2.18827 15.8025 1.03488 18.2394 0.221072 20.4702C -0.585428 22.6841 -1.12043 24.8559 -0.976484 26.5831L 1.01661 26.4169C 0.910531 25.1441 1.31302 23.3159 2.10027 21.1548C 2.88021 19.0106 3.97681 16.6975 5.15443 14.4668C 7.50624 10.0083 10.0885 6.07461 10.8201 5.1L 9.22006 3.9ZM -0.976484 26.5831C -0.857309 28.013 -0.0879595 29.2785 0.886351 30.3364C 1.8483 31.3746 3.13702 32.3414 4.4048 33.1211C 6.93571 34.6753 9.69527 35.73 10.8031 35.9762L 11.237 34.0238C 10.3926 33.8362 7.83899 32.883 5.4514 31.4168C 4.25994 30.6864 3.18807 29.8897 2.35753 28.9816C 1.53935 28.0931 1.0843 27.2292 1.01661 26.4169L -0.976484 26.5831ZM 10.8031 35.9762C 13.1318 36.4904 15.2744 36.6177 16.9005 36.9208C 18.5752 37.2309 19.306 37.6574 19.5916 38.3714L 21.4485 37.6286C 20.7341 35.8426 18.9649 35.2691 17.2647 34.9542C 15.5157 34.6323 13.4083 34.5096 11.237 34.0238L 10.8031 35.9762ZM 19.5916 38.3714C 19.9672 39.3105 20.9499 42.6193 22.0459 46.4618C 23.1323 50.2704 24.3058 54.5148 25.0553 57.2631L 26.9848 56.7369C 26.2344 53.9852 25.0578 49.7296 23.9692 45.9132C 22.8903 42.1307 21.8729 38.6895 21.4485 37.6286L 19.5916 38.3714ZM 37.52 1C 41.2463 1 43.694 2.38555 45.1711 4.14332C 46.674 5.9319 47.2184 8.1589 47.0261 9.88956L 49.0139 10.1104C 49.266 7.8411 48.5605 5.0681 46.7023 2.85668C 44.8182 0.614452 41.7936 -1 37.52 -1L 37.52 1ZM 47.0261 9.88956C 46.5678 14.1943 44.8774 17.1991 41.4074 20.2511L 42.7329 21.7489C 46.4344 18.4544 48.4721 14.8057 49.0139 10.1104L 47.0261 9.88956ZM 41.4074 20.2511C 40.1495 21.3643 38.8385 22 37.52 22L 37.52 24C 39.5037 24 41.2679 23.0453 42.7329 21.7489L 41.4074 20.2511ZM 41.414 21.7546C 42.0143 22.2759 43.0809 23.0841 44.2301 23.7432C 45.3532 24.385 46.7453 25 48.02 25L 48.02 23C 47.2946 23 46.2868 22.615 45.2224 22.0068C 44.1843 21.4159 43.276 20.7241 42.7264 20.2454L 41.414 21.7546ZM 48.02 25C 49.7666 25 50.9244 23.7555 51.751 22.8698C 52.702 21.8509 53.348 21.1542 54.2161 20.9806L 53.8239 19.0194C 52.192 19.3458 51.088 20.6491 50.2889 21.5052C 49.3655 22.4945 48.7734 23 48.02 23L 48.02 25ZM 54.2161 20.9806C 56.4403 20.5357 59.6961 20.9667 63.0238 22.8682L 64.0161 21.1318C 60.3439 19.0333 56.5997 18.4643 53.8239 19.0194L 54.2161 20.9806ZM 63.0238 22.8682C 63.314 23.0341 63.6655 23.1798 64.0509 23.1888C 64.4862 23.199 64.8912 23.0306 65.1846 22.7014C 65.6559 22.1724 65.6912 21.3896 65.6758 20.854C 65.6405 19.628 65.2306 17.8785 64.7302 16.1582C 64.2226 14.4147 63.5847 12.58 63.0485 11.1683C 62.7792 10.4594 62.5282 9.83803 62.3316 9.3856C 62.2317 9.15567 62.137 8.95007 62.0625 8.80152C 62.0228 8.72274 61.9767 8.63702 61.9409 8.57637C 61.9132 8.52975 61.8388 8.40463 61.7271 8.29289L 60.3129 9.70711C 60.2324 9.62662 60.199 9.56009 60.2213 9.59755C 60.2354 9.62097 60.2481 9.64481 60.2753 9.69922C 60.3346 9.81702 60.406 9.97226 60.4974 10.1828C 60.6837 10.6112 60.917 11.1891 61.1789 11.8786C 61.7052 13.2637 62.3173 15.0228 62.8098 16.7168C 63.3093 18.434 63.6494 19.9658 63.6766 20.9116C 63.6925 21.462 63.5872 21.4878 63.6913 21.3709C 63.8011 21.2477 63.9658 21.1863 64.0975 21.1894C 64.1791 21.1913 64.1635 21.2159 64.0161 21.1318L 63.0238 22.8682ZM 61.7271 8.29289C 61.3317 7.89751 60.8374 7.91393 60.5907 7.95234C 60.3759 7.99061 60.1032 8.0858 59.9047 8.17483C 59.5322 8.34465 59.1088 8.58805 58.6977 8.79307C 58.2849 8.99992 57.9449 9.1535 57.5992 9.21283C 57.299 9.26975 57.1571 9.22296 57.0746 9.16795L 55.9652 10.8321C 56.6327 11.277 57.3658 11.2927 57.9719 11.1778C 58.5324 11.0653 59.13 10.8126 59.5921 10.5819C 60.0561 10.3495 60.4452 10.1241 60.729 9.99705C 60.8586 9.93764 60.922 9.92968 60.8985 9.92852C 60.8901 9.92982 60.5833 9.97749 60.3129 9.70711L 61.7271 8.29289ZM 57.0746 9.16795C 56.3246 8.66795 55.6916 8.2592 55.2314 7.67926C 54.8159 7.17143 54.5199 6.52045 54.5199 5.5L 52.5199 5.5C 52.5199 6.97955 52.9739 8.07857 53.6834 8.94574C 54.3482 9.7408 55.2152 10.3321 55.9652 10.8321L 57.0746 9.16795ZM 54.5199 5.5C 54.5199 3.50465 56.0607 2.12796 57.8238 2.48058L 58.216 0.519419C 54.9791 -0.127961 52.5199 2.49535 52.5199 5.5L 54.5199 5.5ZM 57.8238 2.48058C 59.0824 2.73226 60.3895 2.96683 61.5645 3.38136C 62.7269 3.78819 63.6394 4.32604 64.2199 5.1L 65.8199 3.9C 64.9004 2.67396 63.5629 1.96181 62.2252 1.49364C 60.9003 1.03317 59.4574 0.767737 58.216 0.519419L 57.8238 2.48058ZM 64.2199 5.1C 64.9515 6.07461 67.5337 10.0083 69.8855 14.4668C 71.0631 16.6975 72.1597 19.0106 72.9397 21.1548C 73.7269 23.3159 74.1294 25.1441 74.0234 26.4169L 76.0164 26.5831C 76.1604 24.8559 75.6254 22.6841 74.8189 20.4702C 74.0051 18.2394 72.8517 15.8025 71.6543 13.5332C 69.2561 8.99172 66.5883 4.92539 65.8199 3.9L 64.2199 5.1ZM 74.0234 26.4169C 73.9557 27.2292 73.5006 28.0931 72.6824 28.9816C 71.8519 29.8897 70.78 30.6864 69.5886 31.4168C 67.201 32.883 64.6474 33.8362 63.803 34.0238L 64.2368 35.9762C 65.3447 35.73 68.1042 34.6753 70.6352 33.1211C 71.9029 32.3414 73.1917 31.3746 74.1536 30.3364C 75.1279 29.2785 75.8973 28.013 76.0164 26.5831L 74.0234 26.4169ZM 63.803 34.0238C 61.6316 34.5096 59.5243 34.6323 57.7753 34.9542C 56.075 35.2691 54.3058 35.8426 53.5914 37.6286L 55.4484 38.3714C 55.734 37.6574 56.4648 37.2309 58.1395 36.9208C 59.7655 36.6177 61.9082 36.4904 64.2368 35.9762L 63.803 34.0238ZM 53.5914 37.6286C 53.1671 38.6895 52.1497 42.1307 51.0708 45.9132C 49.9821 49.7296 48.8056 53.9852 48.0551 56.7369L 49.9847 57.2631C 50.7342 54.5148 51.9076 50.2704 52.994 46.4618C 54.0901 42.6193 55.0727 39.3105 55.4484 38.3714L 53.5914 37.6286Z"/>
</defs>
</svg>
