<svg width="116" height="106" viewBox="0 0 116 106" version="1.1" xmlns="http://www.w3.org/2000/svg" xmlns:xlink="http://www.w3.org/1999/xlink">
<title>&#208;&#189;&#208;&#176;&#208;&#177;&#209;&#128;&#208;&#176;&#208;&#187;&#208;&#184;</title>
<desc>Created using Figma</desc>
<g id="Canvas" transform="matrix(2 0 0 2 -5792 -4706)">
<g id="&#208;&#189;&#208;&#176;&#208;&#177;&#209;&#128;&#208;&#176;&#208;&#187;&#208;&#184;">
<g id="Ellipse 2">
<use xlink:href="#path0_stroke" transform="translate(2929 2354)" fill="#31AF31"/>
</g>
<g id="Ellipse 2">
<use xlink:href="#path1_stroke" transform="translate(2933 2358)" fill="#31AF31"/>
</g>
<g id="Ellipse 2">
<use xlink:href="#path2_stroke" transform="translate(2938 2363)" fill="#31AF31"/>
</g>
<g id="Vector 2">
<use xlink:href="#path3_stroke" transform="translate(2897.48 2361)" fill="#31AF31"/>
</g>
</g>
</g>
<defs>
<path id="path0_stroke" d="M 23 12C 23 18.0751 18.0751 23 12 23L 12 25C 19.1797 25 25 19.1797 25 12L 23 12ZM 12 23C 5.92487 23 1 18.0751 1 12L -1 12C -1 19.1797 4.8203 25 12 25L 12 23ZM 1 12C 1 5.92487 5.92487 1 12 1L 12 -1C 4.8203 -1 -1 4.8203 -1 12L 1 12ZM 12 1C 18.0751 1 23 5.92487 23 12L 25 12C 25 4.8203 19.1797 -1 12 -1L 12 1Z"/>
<path id="path1_stroke" d="M 15 8C 15 11.866 11.866 15 8 15L 8 17C 12.9706 17 17 12.9706 17 8L 15 8ZM 8 15C 4.13401 15 1 11.866 1 8L -1 8C -1 12.9706 3.02944 17 8 17L 8 15ZM 1 8C 1 4.13401 4.13401 1 8 1L 8 -1C 3.02944 -1 -1 3.02944 -1 8L 1 8ZM 8 1C 11.866 1 15 4.13401 15 8L 17 8C 17 3.02944 12.9706 -1 8 -1L 8 1Z"/>
<path id="path2_stroke" d="M 5 3C 5 4.10457 4.10457 5 3 5L 3 7C 5.20914 7 7 5.20914 7 3L 5 3ZM 3 5C 1.89543 5 1 4.10457 1 3L -1 3C -1 5.20914 0.790861 7 3 7L 3 5ZM 1 3C 1 1.89543 1.89543 1 3 1L 3 -1C 0.790861 -1 -1 0.790861 -1 3L 1 3ZM 3 1C 4.10457 1 5 1.89543 5 3L 7 3C 7 0.790861 5.20914 -1 3 -1L 3 1Z"/>
<path id="path3_stroke" d="M 2.52182 18L 1.68977 18.5547L 2.52182 18ZM 10.5218 23L 11.4648 22.6672L 11.314 22.2398L 10.8932 22.0715L 10.5218 23ZM 20.0218 36.5L 19.4526 37.3222L 20.0218 36.5ZM 33.0218 43L 32.8574 42.0136L 33.0218 43ZM 44.5218 26.5L 45.4953 26.729L 44.5218 26.5ZM 19.0217 5.5L 18.1737 6.03L 18.1737 6.03L 19.0217 5.5ZM 30.0218 17.5L 29.2081 18.0812L 30.0218 17.5ZM -0.975968 7.43348C -1.06149 8.75684 -0.896937 10.8119 -0.475458 12.8335C -0.0515316 14.849 0.682141 17.0273 1.68977 18.5547L 3.35387 17.4453C 2.47877 16.1486 1.87911 14.3269 1.48205 12.4234C 1.08254 10.5261 0.93846 8.74316 1.0196 7.56652L -0.975968 7.43348ZM 1.68977 18.5547C 2.81047 20.2028 4.59341 21.4425 6.19003 22.2646C 7.80086 23.0885 9.34455 23.6057 10.1505 23.9285L 10.8932 22.0715C 10.0325 21.7277 8.57614 21.2449 7.10363 20.4854C 5.61691 19.7242 4.23317 18.7972 3.35387 17.4453L 1.68977 18.5547ZM 9.57885 23.3328C 10.5978 26.2198 13.986 33.5376 19.4526 37.3222L 20.5911 35.6778C 15.6577 32.2624 12.4459 25.4469 11.4648 22.6672L 9.57885 23.3328ZM 19.4526 37.3222C 22.7438 39.5992 25.8166 41.3071 28.1601 42.4056C 29.3418 42.9587 30.3816 43.3767 31.1695 43.6372C 31.5725 43.7698 31.9527 43.8739 32.2454 43.9335C 32.524 43.9895 32.8708 44.039 33.1862 43.9864L 32.8574 42.0136C 32.9228 42.0027 32.8791 42.0209 32.64 41.9728C 32.4152 41.9281 32.1509 41.8552 31.7961 41.7378C 31.0683 41.4983 30.1394 41.1246 29.0086 40.5944C 26.727 39.5263 23.7999 37.9008 20.5911 35.6778L 19.4526 37.3222ZM 33.1862 43.9864C 34.2144 43.815 35.3561 43.1018 36.452 42.1671C 37.5583 41.2212 38.7899 39.8904 39.9468 38.35C 42.2409 35.2862 44.4578 31.102 45.4953 26.729L 43.5484 26.271C 42.5858 30.398 40.5527 34.2138 38.3468 37.15C 37.2538 38.6096 36.1729 39.7788 35.1541 40.6454C 34.125 41.5232 33.3293 41.935 32.8574 42.0136L 33.1862 43.9864ZM 45.4953 26.729C 47.0946 19.932 47.8261 16.9054 47.9919 16.2425L 46.0516 15.7575C 45.884 16.4279 45.1491 19.468 43.5484 26.271L 45.4953 26.729ZM 34.208 20.9188C 32.7797 22.9185 30.3328 26.6419 29.6273 28.0528L 31.4162 28.9472C 32.044 27.6914 34.4068 24.0815 35.8355 22.0812L 34.208 20.9188ZM 19.8697 4.97C 18.5029 2.78302 16.2657 1.51427 14.1757 0.692718C 12.0817 -0.126418 10.0309 -0.549189 8.83807 -0.948683L 8.20561 0.948683C 9.51276 1.38252 11.5127 1.79095 13.444 2.55408C 15.3793 3.3148 17.1421 4.37938 18.1737 6.03L 19.8697 4.97ZM 31.4162 28.9472C 32.073 27.6336 32.6022 25.6103 32.6466 23.4581C 32.6849 21.3321 32.1909 18.8559 30.8356 16.9188L 29.2081 18.0812C 30.3528 19.6441 30.6921 21.5012 30.647 23.4169C 30.608 25.3063 30.1372 27.0331 29.6273 28.0528L 31.4162 28.9472ZM 24.019 17.9249C 23.9388 16.8631 23.6609 14.6673 23.0618 12.258L 21.1212 12.742C 21.6949 15.0349 21.9488 17.0631 22.0247 18.0751L 24.019 17.9249ZM 23.0618 12.258C 22.4907 9.98593 21.1062 6.95233 19.8697 4.97L 18.1737 6.03C 19.345 7.90011 20.603 10.6465 21.1212 12.742L 23.0618 12.258ZM 30.8356 16.9188C 29.4483 14.9929 28.0174 13.8422 26.6413 13.1227C 25.2457 12.4058 23.842 12.0416 22.4145 11.5536L 21.7685 13.4464C 23.2712 13.9584 24.5331 14.2746 25.7202 14.8979C 26.9269 15.5187 27.996 16.368 29.2081 18.0812L 30.8356 16.9188ZM 35.8355 22.0812C 36.5142 21.128 37.7181 19.8062 38.7816 18.6897C 39.3119 18.1327 39.7956 17.6403 40.1507 17.283C 40.3275 17.1051 40.47 16.9632 40.5696 16.8644C 40.6191 16.8153 40.657 16.7778 40.6832 16.752C 40.6961 16.7393 40.7057 16.7299 40.7123 16.7234C 40.7156 16.7202 40.7179 16.7179 40.7195 16.7163C 40.7203 16.7155 40.7208 16.715 40.7212 16.7146C 40.7214 16.7144 40.7215 16.7143 40.7216 16.7143C 40.7216 16.7142 40.7217 16.7142 40.7217 16.7142C 40.7217 16.7142 40.7217 16.7142 40.0217 16C 39.3218 15.2858 39.3218 15.2858 39.3217 15.2859C 39.3217 15.2859 39.3216 15.286 39.3215 15.2861C 39.3214 15.2862 39.3212 15.2864 39.3209 15.2867C 39.3204 15.2871 39.3197 15.2879 39.3187 15.2888C 39.3169 15.2906 39.3141 15.2933 39.3105 15.2968C 39.3036 15.3037 39.2929 15.3141 39.2793 15.3275C 39.2525 15.354 39.2123 15.3937 39.1613 15.4442C 39.0601 15.5446 38.9124 15.6917 38.7321 15.8732C 38.3728 16.2347 37.8743 16.7423 37.3333 17.3103C 36.2539 18.4438 34.9578 19.872 34.208 20.9188L 35.8355 22.0812Z"/>
</defs>
</svg>
