<svg width="152" height="62" viewBox="0 0 152 62" version="1.1" xmlns="http://www.w3.org/2000/svg" xmlns:xlink="http://www.w3.org/1999/xlink">
<title>20%</title>
<desc>Created using Figma</desc>
<g id="Canvas" transform="matrix(2 0 0 2 -6228 -4728)">
<g id="20%">
<g id="20%">
<use xlink:href="#path0_fill" transform="translate(3113 2351)" fill="#31AF31"/>
</g>
</g>
</g>
<defs>
<path id="path0_fill" d="M 20.7227 43L 1.95312 43L 1.95312 40.207L 9.47266 32.6484C 11.7643 30.3307 13.2747 28.6771 14.0039 27.6875C 14.7331 26.6979 15.2799 25.7344 15.6445 24.7969C 16.0091 23.8594 16.1914 22.8503 16.1914 21.7695C 16.1914 20.2461 15.7292 19.0417 14.8047 18.1562C 13.8802 17.2578 12.5977 16.8086 10.957 16.8086C 9.77214 16.8086 8.64583 17.0039 7.57812 17.3945C 6.52344 17.7852 5.34505 18.4948 4.04297 19.5234L 2.32422 17.3164C 4.95443 15.1289 7.81901 14.0352 10.918 14.0352C 13.6003 14.0352 15.7031 14.7253 17.2266 16.1055C 18.75 17.4727 19.5117 19.3151 19.5117 21.6328C 19.5117 23.4427 19.0039 25.2331 17.9883 27.0039C 16.9727 28.7747 15.0716 31.0143 12.2852 33.7227L 6.03516 39.8359L 6.03516 39.9922L 20.7227 39.9922L 20.7227 43ZM 43.7695 28.6836C 43.7695 33.6185 42.9883 37.3034 41.4258 39.7383C 39.8763 42.1732 37.5 43.3906 34.2969 43.3906C 31.224 43.3906 28.8867 42.1471 27.2852 39.6602C 25.6836 37.1602 24.8828 33.5013 24.8828 28.6836C 24.8828 23.7096 25.6576 20.0182 27.207 17.6094C 28.7565 15.2005 31.1198 13.9961 34.2969 13.9961C 37.3958 13.9961 39.7461 15.2526 41.3477 17.7656C 42.9622 20.2786 43.7695 23.918 43.7695 28.6836ZM 28.1641 28.6836C 28.1641 32.8372 28.6523 35.8646 29.6289 37.7656C 30.6055 39.6536 32.1615 40.5977 34.2969 40.5977C 36.4583 40.5977 38.0208 39.6406 38.9844 37.7266C 39.9609 35.7995 40.4492 32.7852 40.4492 28.6836C 40.4492 24.582 39.9609 21.5807 38.9844 19.6797C 38.0208 17.7656 36.4583 16.8086 34.2969 16.8086C 32.1615 16.8086 30.6055 17.7526 29.6289 19.6406C 28.6523 21.5156 28.1641 24.5299 28.1641 28.6836ZM 50.5078 22.9609C 50.5078 25.1745 50.7487 26.8346 51.2305 27.9414C 51.7122 29.0482 52.4935 29.6016 53.5742 29.6016C 55.7096 29.6016 56.7773 27.388 56.7773 22.9609C 56.7773 18.5599 55.7096 16.3594 53.5742 16.3594C 52.4935 16.3594 51.7122 16.9062 51.2305 18C 50.7487 19.0938 50.5078 20.7474 50.5078 22.9609ZM 59.4531 22.9609C 59.4531 25.9297 58.9518 28.1758 57.9492 29.6992C 56.9596 31.2096 55.5013 31.9648 53.5742 31.9648C 51.7513 31.9648 50.332 31.1901 49.3164 29.6406C 48.3138 28.0911 47.8125 25.8646 47.8125 22.9609C 47.8125 20.0052 48.2943 17.7786 49.2578 16.2812C 50.2344 14.7839 51.6732 14.0352 53.5742 14.0352C 55.4622 14.0352 56.9141 14.8099 57.9297 16.3594C 58.9453 17.9089 59.4531 20.1094 59.4531 22.9609ZM 67.6953 34.4062C 67.6953 36.6328 67.9362 38.2995 68.418 39.4062C 68.8997 40.5 69.6875 41.0469 70.7812 41.0469C 71.875 41.0469 72.6823 40.5065 73.2031 39.4258C 73.724 38.332 73.9844 36.6589 73.9844 34.4062C 73.9844 32.1797 73.724 30.5326 73.2031 29.4648C 72.6823 28.3841 71.875 27.8438 70.7812 27.8438C 69.6875 27.8438 68.8997 28.3841 68.418 29.4648C 67.9362 30.5326 67.6953 32.1797 67.6953 34.4062ZM 76.6602 34.4062C 76.6602 37.362 76.1589 39.6016 75.1562 41.125C 74.1667 42.6354 72.7083 43.3906 70.7812 43.3906C 68.9323 43.3906 67.5065 42.6159 66.5039 41.0664C 65.5143 39.5169 65.0195 37.2969 65.0195 34.4062C 65.0195 31.4505 65.5013 29.224 66.4648 27.7266C 67.4414 26.2292 68.8802 25.4805 70.7812 25.4805C 72.6302 25.4805 74.069 26.2487 75.0977 27.7852C 76.1393 29.3086 76.6602 31.5156 76.6602 34.4062ZM 71.6211 14.4453L 55.7812 43L 52.9102 43L 68.75 14.4453L 71.6211 14.4453Z"/>
</defs>
</svg>
