<svg width="122" height="120" viewBox="0 0 122 120" version="1.1" xmlns="http://www.w3.org/2000/svg" xmlns:xlink="http://www.w3.org/1999/xlink">
<title>&#209;&#129;&#208;&#177;&#209;&#128;&#208;&#190;&#209;&#129;&#208;&#184;&#208;&#187;&#208;&#184;</title>
<desc>Created using Figma</desc>
<g id="Canvas" transform="matrix(2 0 0 2 -6722 -4692)">
<g id="&#209;&#129;&#208;&#177;&#209;&#128;&#208;&#190;&#209;&#129;&#208;&#184;&#208;&#187;&#208;&#184;">
<g id="Vector 3">
<use xlink:href="#path0_stroke" transform="translate(3362.5 2347.5)" fill="#31AF31"/>
</g>
</g>
</g>
<defs>
<path id="path0_stroke" d="M 13.4999 0L 13.4999 -1L 11.8819 -1L 12.6055 0.447214L 13.4999 0ZM 11.4999 31.5L 10.6127 31.0386L 11.4999 31.5ZM 14.4999 57L 13.6925 57.59L 13.9921 58L 14.4999 58L 14.4999 57ZM 12.0121 30.5L 11.1192 30.0498L 12.0121 30.5ZM 44.4999 0L 45.3943 0.447214L 46.1179 -1L 44.4999 -1L 44.4999 0ZM 46.4999 31.5L 47.3871 31.0386L 46.4999 31.5ZM 43.4999 57L 43.4999 58L 44.0077 58L 44.3073 57.59L 43.4999 57ZM 45.9877 30.5L 46.8807 30.0498L 45.9877 30.5ZM 0 18L 0 17L -1 17L -1 18L 0 18ZM 0 21.5L -1 21.5L -1 22.5L 0 22.5L 0 21.5ZM 7 21.5L 8 21.5L 8 20.5L 7 20.5L 7 21.5ZM 7 24.5L 6 24.5L 6 27.106L 7.7433 25.169L 7 24.5ZM 11.4999 19.5L 12.2432 20.169L 12.8452 19.5L 12.2432 18.831L 11.4999 19.5ZM 7 14.5L 7.7433 13.831L 6 11.894L 6 14.5L 7 14.5ZM 7 18L 7 19L 8 19L 8 18L 7 18ZM 57.9998 18L 58.9998 18L 58.9998 17L 57.9998 17L 57.9998 18ZM 57.9998 21.5L 57.9998 22.5L 58.9998 22.5L 58.9998 21.5L 57.9998 21.5ZM 50.9998 21.5L 50.9998 20.5L 49.9998 20.5L 49.9998 21.5L 50.9998 21.5ZM 50.9998 24.5L 50.2565 25.169L 51.9998 27.106L 51.9998 24.5L 50.9998 24.5ZM 46.4999 19.5L 45.7566 18.831L 45.1546 19.5L 45.7566 20.169L 46.4999 19.5ZM 50.9998 14.5L 51.9998 14.5L 51.9998 11.894L 50.2565 13.831L 50.9998 14.5ZM 50.9998 18L 49.9998 18L 49.9998 19L 50.9998 19L 50.9998 18ZM 28.9999 -1L 13.4999 -1L 13.4999 1L 28.9999 1L 28.9999 -1ZM 12.6055 0.447214C 13.1807 1.59725 14.0331 3.47136 14.7488 5.42007C 15.4781 7.40372 15.9999 9.29585 15.9999 10.5L 17.9999 10.5C 17.9999 8.90415 17.355 6.71295 16.626 4.72993C 15.8833 2.71197 14.9858 0.736085 14.3943 -0.447214L 12.6055 0.447214ZM 10.6127 31.0386C 7.92945 36.2587 7.86363 41.8954 8.88557 46.589C 9.92759 51.3023 12.0687 55.3635 13.6925 57.59L 15.3073 56.41C 13.7644 54.3031 11.8055 50.6144 10.8392 46.161C 9.85284 41.6879 9.87035 36.7413 12.3871 31.9614L 10.6127 31.0386ZM 14.4999 58L 28.9999 58L 28.9999 56L 14.4999 56L 14.4999 58ZM 29.9999 57L 29.9999 45L 27.9999 45L 27.9999 57L 29.9999 57ZM 15.9999 10.5C 16.0015 12.2598 16.2368 14.2366 15.7444 17.2025C 15.2518 20.2416 14.0504 24.2446 11.1192 30.0498L 12.905 30.9502C 15.9081 24.9855 17.2006 20.6911 17.7184 17.5239C 18.2363 14.2835 17.9983 12.1453 17.9999 10.5L 15.9999 10.5ZM 11.1192 30.0498C 10.9552 30.3749 10.7874 30.7026 10.6127 31.0386L 12.3871 31.9614C 12.5647 31.6198 12.7383 31.2809 12.905 30.9502L 11.1192 30.0498ZM 29.6491 44.2394L 12.6613 29.7394L 11.3629 31.2606L 28.3507 45.7606L 29.6491 44.2394ZM 28.9999 29.5L 12.0121 29.5L 12.0121 31.5L 28.9999 31.5L 28.9999 29.5ZM 28.9999 1L 44.4999 1L 44.4999 -1L 28.9999 -1L 28.9999 1ZM 43.6055 -0.447214C 43.014 0.736085 42.1165 2.71197 41.3738 4.72993C 40.6448 6.71295 39.9999 8.90415 39.9999 10.5L 41.9999 10.5C 41.9999 9.29585 42.5217 7.40372 43.251 5.42007C 43.9667 3.47136 44.8191 1.59725 45.3943 0.447214L 43.6055 -0.447214ZM 45.6127 31.9614C 48.1294 36.7413 48.147 41.6879 47.1606 46.161C 46.1943 50.6144 44.2354 54.3031 42.6925 56.41L 44.3073 57.59C 45.9311 55.3635 48.0722 51.3023 49.1142 46.589C 50.1362 41.8954 50.0704 36.2587 47.3871 31.0386L 45.6127 31.9614ZM 43.4999 56L 28.9999 56L 28.9999 58L 43.4999 58L 43.4999 56ZM 39.9999 10.5C 40.0015 12.1453 39.7635 14.2835 40.2814 17.5239C 40.7992 20.6911 42.0917 24.9855 45.0948 30.9502L 46.8807 30.0498C 43.9494 24.2446 42.748 20.2416 42.2554 17.2025C 41.763 14.2366 41.9983 12.2598 41.9999 10.5L 39.9999 10.5ZM 45.0948 30.9502C 45.2615 31.2809 45.4351 31.6198 45.6127 31.9614L 47.3871 31.0386C 47.2124 30.7026 47.0446 30.3749 46.8807 30.0498L 45.0948 30.9502ZM 29.6491 45.7606L 46.6369 31.2606L 45.3385 29.7394L 28.3507 44.2394L 29.6491 45.7606ZM 28.9999 31.5L 45.9877 31.5L 45.9877 29.5L 28.9999 29.5L 28.9999 31.5ZM 27.9999 19.5L 27.9999 21.5L 29.9999 21.5L 29.9999 19.5L 27.9999 19.5ZM -1 18L -1 21.5L 1 21.5L 1 18L -1 18ZM 0 22.5L 7 22.5L 7 20.5L 0 20.5L 0 22.5ZM 6 21.5L 6 24.5L 8 24.5L 8 21.5L 6 21.5ZM 7.7433 25.169L 12.2432 20.169L 10.7566 18.831L 6.2567 23.831L 7.7433 25.169ZM 12.2432 18.831L 7.7433 13.831L 6.2567 15.169L 10.7566 20.169L 12.2432 18.831ZM 6 14.5L 6 18L 8 18L 8 14.5L 6 14.5ZM 7 17L 0 17L 0 19L 7 19L 7 17ZM 56.9998 18L 56.9998 21.5L 58.9998 21.5L 58.9998 18L 56.9998 18ZM 57.9998 20.5L 50.9998 20.5L 50.9998 22.5L 57.9998 22.5L 57.9998 20.5ZM 49.9998 21.5L 49.9998 24.5L 51.9998 24.5L 51.9998 21.5L 49.9998 21.5ZM 51.7431 23.831L 47.2432 18.831L 45.7566 20.169L 50.2565 25.169L 51.7431 23.831ZM 47.2432 20.169L 51.7431 15.169L 50.2565 13.831L 45.7566 18.831L 47.2432 20.169ZM 49.9998 14.5L 49.9998 18L 51.9998 18L 51.9998 14.5L 49.9998 14.5ZM 50.9998 19L 57.9998 19L 57.9998 17L 50.9998 17L 50.9998 19Z"/>
</defs>
</svg>
