<svg width="104" height="102" viewBox="0 0 104 102" version="1.1" xmlns="http://www.w3.org/2000/svg" xmlns:xlink="http://www.w3.org/1999/xlink">
<title>&#208;&#191;&#209;&#128;&#208;&#190;&#208;&#177;&#208;&#181;&#208;&#182;&#208;&#176;&#208;&#187;&#208;&#184;</title>
<desc>Created using Figma</desc>
<g id="Canvas" transform="matrix(2 0 0 2 -7200 -4698)">
<g id="&#208;&#191;&#209;&#128;&#208;&#190;&#208;&#177;&#208;&#181;&#208;&#182;&#208;&#176;&#208;&#187;&#208;&#184;">
<g id="Vector 4">
<use xlink:href="#path0_stroke" transform="translate(3601 2356)" fill="#31AF31"/>
</g>
<g id="Vector 5">
<use xlink:href="#path1_stroke" transform="translate(3632.5 2352)" fill="#31AF31"/>
</g>
<g id="Ellipse 3">
<use xlink:href="#path2_stroke" transform="translate(3603 2350)" fill="#31AF31"/>
</g>
</g>
</g>
<defs>
<path id="path0_stroke" d="M 7 9.5L 6.36312 8.72904L 6 9.02901L 6 9.5L 7 9.5ZM 21 24L 21.7071 24.7071L 22.4019 24.0123L 21.7194 23.3054L 21 24ZM 12.5 42.5L 12.5 43.5L 13.5 43.5L 13.5 42.5L 12.5 42.5ZM 29 24.5L 29.6866 23.773L 28.9801 23.1057L 28.2929 23.7929L 29 24.5ZM 49 28L 49.8253 27.4353L 49 28ZM 42 29L 41.3146 29.7282L 41.8229 30.2066L 42.4472 29.8944L 42 29ZM 33.5 21L 34.1854 20.2718L 33.7504 19.8624L 33.1838 20.0513L 33.5 21ZM 32 21.5L 31.2929 20.7929L 32.3162 22.4487L 32 21.5ZM 22.5 5.5L 22.5 4.5L 20.0858 4.5L 21.7929 6.20711L 22.5 5.5ZM 31.5 5.5L 32.5 5.5L 32.5 4.5L 31.5 4.5L 31.5 5.5ZM 18.5 0L 18.5 -1L 18.1404 -1L 17.8631 -0.770962L 18.5 0ZM 7 19.5L 7 20.5L 8 20.5L 8 19.5L 7 19.5ZM 20.2929 23.2929C 18.6262 24.9596 15.4929 28.0929 14.2929 29.2929L 15.7071 30.7071C 16.9071 29.5071 20.0404 26.3738 21.7071 24.7071L 20.2929 23.2929ZM 14.2929 29.2929C 12.7064 30.8794 11.5 32.8068 11.5 35L 13.5 35C 13.5 33.5673 14.2936 32.1206 15.7071 30.7071L 14.2929 29.2929ZM 11.5 35C 11.5 35.4 11.5 39.6667 11.5 42.5L 13.5 42.5C 13.5 39.6667 13.5 35.4 13.5 35L 11.5 35ZM 12.5 41.5L 10 41.5L 10 43.5L 12.5 43.5L 12.5 41.5ZM 10 43.5L 18 43.5L 18 41.5L 10 41.5L 10 43.5ZM 18 43.5L 23.5 43.5L 23.5 41.5L 18 41.5L 18 43.5ZM 19 42.5L 19 37.5L 17 37.5L 17 42.5L 19 42.5ZM 19 37.5C 19 35.8998 19.3408 34.954 19.6763 34.3789C 19.9967 33.7901 20.4052 33.5055 20.7071 33.2071L 19.2929 31.7929C 19.0948 31.9945 18.5033 32.4599 17.9487 33.3711C 17.4092 34.296 17 35.6002 17 37.5L 19 37.5ZM 20.7071 33.2071C 20.9233 32.9909 22.4423 31.7121 24.3418 30.0687C 26.1996 28.4614 28.3514 26.5622 29.7071 25.2071L 28.2929 23.7929C 26.982 25.1045 24.8837 26.9553 23.0332 28.5563C 21.2243 30.1212 19.5767 31.5091 19.2929 31.7929L 20.7071 33.2071ZM 28.3134 25.227C 31.313 28.06 37.5027 33.9168 38.2929 34.7071L 39.7071 33.2929C 38.8973 32.4832 32.687 26.6066 29.6866 23.773L 28.3134 25.227ZM 38.2929 34.7071C 39.0211 35.4353 40.0921 35.7672 41.0572 35.8578C 42.0339 35.9495 43.1067 35.8147 43.9472 35.3944L 43.0528 33.6056C 42.6284 33.8178 41.9512 33.9329 41.2442 33.8666C 40.5254 33.7991 39.9789 33.5647 39.7071 33.2929L 38.2929 34.7071ZM 43.9472 35.3944C 44.4921 35.1206 45.4647 34.5051 46.4286 33.8984C 47.3925 33.2916 48.3503 32.6916 48.9472 32.3944L 48.0528 30.6056C 47.3719 30.9473 46.3297 31.5973 45.3631 32.2058C 44.3964 32.8144 43.5079 33.3794 43.0528 33.6056L 43.9472 35.3944ZM 48.9472 32.3944C 49.952 31.892 50.428 30.9594 50.517 30.0334C 50.6036 29.1315 50.3381 28.1848 49.8253 27.4353L 48.1747 28.5647C 48.4415 28.9547 48.5649 29.4386 48.5261 29.8421C 48.4897 30.2215 48.3258 30.4691 48.0528 30.6056L 48.9472 32.3944ZM 49.8253 27.4353C 48.927 26.1224 47.1174 25.3233 45.5528 26.1056L 46.4472 27.8944C 46.8826 27.6767 47.6783 27.8392 48.1747 28.5647L 49.8253 27.4353ZM 45.5528 26.1056C 44.7528 26.5056 42.5528 27.6056 41.5528 28.1056L 42.4472 29.8944C 43.4472 29.3944 45.6472 28.2944 46.4472 27.8944L 45.5528 26.1056ZM 42.6854 28.2718L 34.1854 20.2718L 32.8146 21.7282L 41.3146 29.7282L 42.6854 28.2718ZM 33.1838 20.0513L 31.6838 20.5513L 32.3162 22.4487L 33.8162 21.9487L 33.1838 20.0513ZM 32.7071 22.2071C 33.0907 21.8196 33.6643 21.0479 34.1066 20.316C 34.3276 19.9484 34.5464 19.5389 34.6993 19.1871C 34.8433 18.8538 35 18.4171 35 18L 33 18C 32.9894 17.9456 32.9773 18.1343 32.8632 18.3941C 32.7453 18.6694 32.589 18.9599 32.3934 19.284C 32.0023 19.9354 31.5759 20.5137 31.2929 20.7929L 32.7071 22.2071ZM 35 18C 35 17.6611 34.8381 17.3758 34.7866 17.2833C 34.7104 17.148 34.5936 16.9704 34.4724 16.803C 34.2393 16.4825 33.8999 16.0634 33.502 15.5983C 32.7124 14.6758 31.6184 13.4802 30.4157 12.2022C 28.0124 9.64847 25.1268 6.71261 23.2071 4.79289L 21.7929 6.20711C 23.7065 8.12072 26.5709 11.0349 28.9593 13.5728C 30.1524 14.8406 31.2147 16.0013 31.9824 16.8986C 32.3631 17.3434 32.6526 17.7001 32.8538 17.9778C 32.9497 18.1096 33.0014 18.1868 33.0393 18.2565C 33.102 18.369 33 18.2389 33 18L 35 18ZM 22.5 6.5L 31.5 6.5L 31.5 4.5L 22.5 4.5L 22.5 6.5ZM 30.5 5.5C 30.5 6.5 30.5 8.7 30.5 9.5L 32.5 9.5C 32.5 8.7 32.5 6.5 32.5 5.5L 30.5 5.5ZM 30.5 9.5C 30.5 10.422 31.1264 11.2975 31.7731 11.8724C 32.456 12.4794 33.4325 13 34.5 13L 34.5 11C 34.0675 11 33.544 10.7706 33.1019 10.3776C 32.6236 9.95249 32.5 9.57799 32.5 9.5L 30.5 9.5ZM 34.5 13C 35.3887 12.9903 36.5351 12.6621 37.3494 12.1562C 38.1802 11.6274 39 10.7342 39 9.5L 37 9.5C 37 9.76577 36.8198 10.1226 36.2756 10.4688C 35.7149 10.8379 35.1113 11.0097 34.5 11L 34.5 13ZM 39 9.5C 39 8 39 4 39 3L 37 3C 37 4 37 8 37 9.5L 39 9.5ZM 39 3C 39 2.53089 38.8344 2.05774 38.6366 1.66216C 38.4404 1.27483 38.1303 0.819955 37.8058 0.456035C 37.168 -0.252652 36.1683 -1 35 -1L 35 1C 35.3317 1 35.832 1.25265 36.3192 1.79396C 36.5572 2.05504 36.7158 2.28767 36.8478 2.55659C 36.9781 2.81726 37 2.96911 37 3L 39 3ZM 35 -1C 33.8 -1 23.5 -1 18.5 -1L 18.5 1C 23.5 1 33.8 1 35 1L 35 -1ZM 17.8631 -0.770962L 6.36312 8.72904L 7.63688 10.271L 19.1369 0.770962L 17.8631 -0.770962ZM 27 43.5L 30.5 43.5L 30.5 41.5L 27 41.5L 27 43.5ZM 33.5 43.5L 36.5 43.5L 36.5 41.5L 33.5 41.5L 33.5 43.5ZM 6 9.5L 6 19.5L 8 19.5L 8 9.5L 6 9.5ZM 7 18.5C 6 18.5 3.7 18.5 2.5 18.5L 2.5 20.5C 3.7 20.5 6 20.5 7 20.5L 7 18.5ZM 2.5 18.5C 1.27851 18.5 0.390364 19.3057 -0.131732 20.0515C -0.654901 20.7989 -1 21.7453 -1 22.5L 1 22.5C 1 22.2547 1.1549 21.7011 1.50673 21.1985C 1.85964 20.6943 2.22149 20.5 2.5 20.5L 2.5 18.5ZM -1 22.5C -1 23.2547 -0.654901 24.2011 -0.131732 24.9485C 0.390364 25.6943 1.27851 26.5 2.5 26.5L 2.5 24.5C 2.22149 24.5 1.85964 24.3057 1.50673 23.8015C 1.1549 23.2989 1 22.7453 1 22.5L -1 22.5ZM 2.5 26.5C 4 26.5 9 26.5 10.5 26.5L 10.5 24.5C 9 24.5 4 24.5 2.5 24.5L 2.5 26.5ZM 10.5 26.5C 11.6047 26.5 12.4863 25.945 13.0651 25.2835C 13.6273 24.6409 14 23.7902 14 23L 12 23C 12 23.2098 11.8727 23.6091 11.5599 23.9665C 11.2637 24.305 10.8953 24.5 10.5 24.5L 10.5 26.5ZM 6.2806 10.1946L 12.2806 16.4089L 13.7194 15.0197L 7.7194 8.80541L 6.2806 10.1946ZM 12.2806 16.4089L 20.2806 24.6946L 21.7194 23.3054L 13.7194 15.0197L 12.2806 16.4089ZM 14 23C 14 22.2 14 17.8095 14 15.7143L 12 15.7143C 12 17.8095 12 22.2 12 23L 14 23Z"/>
<path id="path1_stroke" d="M 0 1L 7 1L 7 -1L 0 -1L 0 1ZM 10 1L 13 1L 13 -1L 10 -1L 10 1ZM 16 1L 19 1L 19 -1L 16 -1L 16 1Z"/>
<path id="path2_stroke" d="M 10 5.5C 10 7.98528 7.98528 10 5.5 10L 5.5 12C 9.08985 12 12 9.08985 12 5.5L 10 5.5ZM 5.5 10C 3.01472 10 1 7.98528 1 5.5L -1 5.5C -1 9.08985 1.91015 12 5.5 12L 5.5 10ZM 1 5.5C 1 3.01472 3.01472 1 5.5 1L 5.5 -1C 1.91015 -1 -1 1.91015 -1 5.5L 1 5.5ZM 5.5 1C 7.98528 1 10 3.01472 10 5.5L 12 5.5C 12 1.91015 9.08985 -1 5.5 -1L 5.5 1Z"/>
</defs>
</svg>
