<svg width="188" height="202" viewBox="0 0 188 202" version="1.1" xmlns="http://www.w3.org/2000/svg" xmlns:xlink="http://www.w3.org/1999/xlink">
<title>&#208;&#187;&#208;&#181;&#209;&#135;&#208;&#181;&#208;&#177;&#208;&#189;&#209;&#139;&#208;&#185;</title>
<desc>Created using Figma</desc>
<g id="Canvas" transform="matrix(2 0 0 2 -3598 -4618)">
<g id="&#208;&#187;&#208;&#181;&#209;&#135;&#208;&#181;&#208;&#177;&#208;&#189;&#209;&#139;&#208;&#185;">
<g id="Vector 12">
<use xlink:href="#path0_stroke" transform="translate(1831 2344)" fill="#31AF31"/>
</g>
<g id="Vector 11">
<use xlink:href="#path1_stroke" transform="translate(1800.41 2356)" fill="#31AF31"/>
</g>
<g id="Vector 11">
<use xlink:href="#path1_stroke" transform="matrix(-1 0 0 -1 1891.61 2363)" fill="#31AF31"/>
</g>
<g id="Ellipse 5">
<use xlink:href="#path2_stroke" transform="translate(1820 2333)" fill="#31AF31"/>
</g>
</g>
</g>
<defs>
<path id="path0_stroke" d="M 9.5 0L 9.5 -1C 8.94772 -1 8.5 -0.552285 8.5 2.22045e-16L 9.5 0ZM 9.5 9.5L 9.5 10.5C 10.0523 10.5 10.5 10.0523 10.5 9.5L 9.5 9.5ZM 0 9.5L 0 8.5C -0.552285 8.5 -1 8.94772 -1 9.5L 0 9.5ZM 0 20.5L -1 20.5C -1 21.0523 -0.552285 21.5 2.22045e-16 21.5L 0 20.5ZM 9.5 20.5L 10.5 20.5C 10.5 19.9477 10.0523 19.5 9.5 19.5L 9.5 20.5ZM 9.5 30L 8.5 30C 8.5 30.5523 8.94772 31 9.5 31L 9.5 30ZM 20.5 30L 20.5 31C 21.0523 31 21.5 30.5523 21.5 30L 20.5 30ZM 20.5 20.5L 20.5 19.5C 19.9477 19.5 19.5 19.9477 19.5 20.5L 20.5 20.5ZM 30 20.5L 30 21.5C 30.5523 21.5 31 21.0523 31 20.5L 30 20.5ZM 30 9.5L 31 9.5C 31 8.94772 30.5523 8.5 30 8.5L 30 9.5ZM 20.5 9.5L 19.5 9.5C 19.5 10.0523 19.9477 10.5 20.5 10.5L 20.5 9.5ZM 20.5 0L 21.5 0C 21.5 -0.552285 21.0523 -1 20.5 -1L 20.5 0ZM 8.5 0L 8.5 9.5L 10.5 9.5L 10.5 0L 8.5 0ZM 9.5 8.5L 0 8.5L 0 10.5L 9.5 10.5L 9.5 8.5ZM -1 9.5L -1 20.5L 1 20.5L 1 9.5L -1 9.5ZM 0 21.5L 9.5 21.5L 9.5 19.5L 0 19.5L 0 21.5ZM 8.5 20.5L 8.5 30L 10.5 30L 10.5 20.5L 8.5 20.5ZM 9.5 31L 20.5 31L 20.5 29L 9.5 29L 9.5 31ZM 21.5 30L 21.5 20.5L 19.5 20.5L 19.5 30L 21.5 30ZM 20.5 21.5L 30 21.5L 30 19.5L 20.5 19.5L 20.5 21.5ZM 31 20.5L 31 9.5L 29 9.5L 29 20.5L 31 20.5ZM 30 8.5L 20.5 8.5L 20.5 10.5L 30 10.5L 30 8.5ZM 21.5 9.5L 21.5 0L 19.5 0L 19.5 9.5L 21.5 9.5ZM 20.5 -1L 9.5 -1L 9.5 1L 20.5 1L 20.5 -1Z"/>
<path id="path1_stroke" d="M 13.0829 0.0866296C 13.1307 -0.463579 12.7235 -0.948396 12.1732 -0.996241C 11.623 -1.04408 11.1382 -0.636838 11.0904 -0.0866296L 13.0829 0.0866296ZM 15.5866 19L 14.7291 19.5145L 15.5866 19ZM 35.0866 38L 34.2454 38.5408L 35.0866 38ZM 38.5866 53L 37.6468 53.3417C 37.8156 53.8059 38.2981 54.0774 38.7824 53.9806C 39.2668 53.8839 39.608 53.448 39.5856 52.9546L 38.5866 53ZM 20.0866 38L 21.0058 37.6061L 20.0866 38ZM 20.0866 32.5L 20.2827 31.5194C 19.8405 31.431 19.3939 31.6494 19.1922 32.0528L 20.0866 32.5ZM 28.3057 39.6247C 28.6508 40.056 29.28 40.1259 29.7113 39.7809C 30.1426 39.4359 30.2125 38.8066 29.8675 38.3753L 28.3057 39.6247ZM 9.24824 9.24984C 9.66236 8.88443 9.70186 8.2525 9.33645 7.83838C 8.97105 7.42425 8.33912 7.38476 7.92499 7.75016L 9.24824 9.24984ZM 4.58661 38L 3.8795 38.7071C 4.1655 38.9931 4.59562 39.0787 4.9693 38.9239C 5.34297 38.7691 5.58662 38.4045 5.58661 38L 4.58661 38ZM 8.58661 17L 9.40585 16.4265C 9.23632 16.1844 8.96833 16.0296 8.67384 16.0038C 8.37935 15.978 8.08854 16.0839 7.87951 16.2929L 8.58661 17ZM 3.58659 25.5C 3.58659 26.0523 4.03431 26.5 4.58659 26.5C 5.13888 26.5 5.58659 26.0523 5.58659 25.5L 3.58659 25.5ZM 11.0904 -0.0866296C 10.752 3.8047 10.9623 13.2364 14.7291 19.5145L 16.4441 18.4855C 13.011 12.7636 12.7546 3.86197 13.0829 0.0866296L 11.0904 -0.0866296ZM 14.7291 19.5145C 17.0807 23.4339 21.4165 27.2341 25.3729 30.5059C 27.367 32.1549 29.2888 33.6877 30.8762 35.0666C 32.4836 36.4626 33.6559 37.6237 34.2454 38.5408L 35.9278 37.4592C 35.1654 36.2733 33.7868 34.9455 32.1876 33.5566C 30.5684 32.1506 28.6279 30.6025 26.6475 28.9647C 22.6549 25.6629 18.5925 22.0661 16.4441 18.4855L 14.7291 19.5145ZM 34.2454 38.5408C 38.5594 45.2513 37.4131 49.2062 37.5876 53.0454L 39.5856 52.9546C 39.4268 49.4605 40.6139 44.7487 35.9278 37.4592L 34.2454 38.5408ZM 39.5264 52.6583C 38.8117 50.6928 36.3483 46.2628 32.0338 44.1056L 31.1394 45.8944C 34.8249 47.7372 37.0282 51.6405 37.6468 53.3417L 39.5264 52.6583ZM 32.0338 44.1056C 29.4762 42.829 26.9706 41.9516 24.9604 40.9752C 22.9381 39.9947 21.605 39.0043 21.0058 37.6061L 19.1675 38.3939C 20.0682 40.4957 21.9851 41.7553 24.0878 42.7748C 26.2027 43.7984 28.697 44.671 31.1394 45.8944L 32.0338 44.1056ZM 21.0058 37.6061C 20.0151 35.2946 20.7249 33.4596 20.981 32.9472L 19.1922 32.0528C 18.7817 32.8738 17.8639 35.3522 19.1675 38.3939L 21.0058 37.6061ZM 19.8905 33.4806C 20.9077 33.684 22.5056 34.5641 24.1789 35.8036C 25.8239 37.0203 27.355 38.4317 28.3057 39.6247L 29.8675 38.3753C 28.8183 37.0683 27.0993 35.4797 25.3693 34.1964C 23.6677 32.9359 21.7655 31.816 20.2827 31.5194L 19.8905 33.4806ZM 7.92499 7.75016C 6.48982 9.01691 4.38901 11.0704 2.61581 13.4987C 0.847794 15.926 -0.691502 18.858 -0.910838 21.9288L 1.08408 22.0712C 1.26474 19.542 2.55878 16.974 4.23242 14.6763C 5.90089 12.3796 7.85008 10.4831 9.24824 9.24984L 7.92499 7.75016ZM -0.910838 21.9288C -1.31729 27.6191 -0.433628 34.3939 3.8795 38.7071L 5.29372 37.2929C 1.60697 33.6061 0.690532 27.5809 1.08408 22.0712L -0.910838 21.9288ZM 5.58661 38C 5.58661 37.4694 5.75777 36.423 6.10137 35.1631C 6.44111 33.9148 6.90708 32.5908 7.48102 31.4472L 5.69217 30.5528C 5.06611 31.8092 4.53208 33.3185 4.17184 34.6369C 3.81544 35.9437 3.58661 37.1973 3.58661 38L 5.58661 38ZM 7.48102 31.4472C 8.19491 30.0131 8.9915 28.8874 9.7294 27.7197C 10.4682 26.5492 11.1632 25.2815 11.5567 23.7425L 9.61645 23.2575C 9.30291 24.547 8.74788 25.5292 8.03845 26.6516C 7.32814 27.7769 6.47828 28.9869 5.69217 30.5528L 7.48102 31.4472ZM 11.5567 23.7425C 11.8774 22.4597 11.5954 21.0266 11.1533 19.7887C 10.706 18.546 10.0178 17.3031 9.40585 16.4265L 7.76738 17.5735C 8.32211 18.3636 8.88393 19.3707 9.26986 20.4613C 9.66108 21.5568 9.79574 22.5403 9.61645 23.2575L 11.5567 23.7425ZM 7.87951 16.2929C 6.50701 17.6654 3.58659 21.0806 3.58659 25.5L 5.58659 25.5C 5.58659 21.9194 7.99956 19.0013 9.29372 17.7071L 7.87951 16.2929Z"/>
<path id="path2_stroke" d="M 52 26.5C 52 40.5833 40.5833 52 26.5 52L 26.5 54C 41.6878 54 54 41.6878 54 26.5L 52 26.5ZM 26.5 52C 12.4167 52 1 40.5833 1 26.5L -1 26.5C -1 41.6878 11.3122 54 26.5 54L 26.5 52ZM 1 26.5C 1 12.4167 12.4167 1 26.5 1L 26.5 -1C 11.3122 -1 -1 11.3122 -1 26.5L 1 26.5ZM 26.5 1C 40.5833 1 52 12.4167 52 26.5L 54 26.5C 54 11.3122 41.6878 -1 26.5 -1L 26.5 1Z"/>
</defs>
</svg>
