<svg width="156" height="188" viewBox="0 0 156 188" version="1.1" xmlns="http://www.w3.org/2000/svg" xmlns:xlink="http://www.w3.org/1999/xlink">
<title>&#208;&#191;&#208;&#184;&#208;&#187;&#208;&#184;&#208;&#189;&#208;&#179;</title>
<desc>Created using Figma</desc>
<g id="Canvas" transform="matrix(2 0 0 2 -3890 -4628)">
<g id="&#208;&#191;&#208;&#184;&#208;&#187;&#208;&#184;&#208;&#189;&#208;&#179;">
<g id="Vector 14">
<use xlink:href="#path0_stroke" transform="translate(1946 2315)" fill="#31AF31"/>
</g>
<g id="Vector 15">
<use xlink:href="#path1_stroke" transform="translate(1965.5 2372.5)" fill="#31AF31"/>
</g>
</g>
</g>
<defs>
<path id="path0_stroke" d="M 10.5 36L 11.5 36L 10.5 36ZM 14.5 53.5L 13.7 54.1L 14.5 53.5ZM 19.5 57.5L 19.5 58.5C 19.9669 58.5 20.3717 58.1769 20.4752 57.7216L 19.5 57.5ZM 28 43.5L 28.6644 44.2474L 28.6644 44.2474L 28 43.5ZM 65.5002 36L 64.5002 36L 65.5002 36ZM 61.5 53.5L 60.668 52.9453L 61.5 53.5ZM 56.5001 57.5L 55.525 57.7216C 55.5876 57.9969 55.7635 58.2329 56.0095 58.3714C 56.2555 58.5099 56.5486 58.538 56.8164 58.4487L 56.5001 57.5ZM 48.0001 43.5L 47.3358 44.2474L 47.3358 44.2474L 48.0001 43.5ZM 29 18L 29.464 18.8858L 29 18ZM 46.6414 13.9899C 47.1882 13.9118 47.5681 13.4053 47.4899 12.8586C 47.4118 12.3118 46.9053 11.9319 46.3586 12.0101L 46.6414 13.9899ZM 8.8 55.4C 8.46864 54.9582 7.84184 54.8686 7.40001 55.2C 6.95818 55.5314 6.86863 56.1582 7.2 56.6L 8.8 55.4ZM 13 61L 12.5528 61.8944L 12.5528 61.8944L 13 61ZM 19.5 74.5L 19.6961 73.5194L 19.5 74.5ZM 11.5 86.5L 12.2809 85.8753L 11.5 86.5ZM 5 76L 5.91915 75.6061L 5 76ZM 0.843662 66.4631C 0.547153 65.9972 -0.0709341 65.8598 -0.536875 66.1563C -1.00282 66.4528 -1.14017 67.0709 -0.843662 67.5369L 0.843662 66.4631ZM 68.8 56.6C 69.1314 56.1582 69.0418 55.5314 68.6 55.2C 68.1582 54.8686 67.5314 54.9582 67.2 55.4L 68.8 56.6ZM 63 61L 63.4472 61.8944L 63.4472 61.8944L 63 61ZM 56.5 74.5L 56.6961 75.4806L 56.5 74.5ZM 64.5 86.5L 63.7191 85.8753L 64.5 86.5ZM 71 76L 70.0809 75.6061L 71 76ZM 76.8437 67.5369C 77.1402 67.0709 77.0028 66.4528 76.5369 66.1563C 76.0709 65.8598 75.4528 65.9972 75.1563 66.4631L 76.8437 67.5369ZM 9.5 36C 9.49991 47.1742 12.2742 52.1989 13.7 54.1L 15.3 52.9C 14.1803 51.407 11.4999 46.8258 11.5 36L 9.5 36ZM 13.7 54.1C 15.2628 56.1837 16.6105 57.2863 17.6289 57.8682C 18.1421 58.1573 18.6063 58.3289 18.883 58.4037C 19.0431 58.4454 19.198 58.4731 19.2803 58.484C 19.3321 58.4904 19.3874 58.4953 19.4135 58.497C 19.4318 58.4981 19.4536 58.4991 19.4627 58.4994C 19.4699 58.4996 19.4793 58.4998 19.4829 58.4999C 19.486 58.4999 19.4903 58.5 19.4919 58.5C 19.4933 58.5 19.4953 58.5 19.496 58.5C 19.4967 58.5 19.4977 58.5 19.4981 58.5C 19.4991 58.5 19.5 58.5 19.5 57.5C 19.5 56.5 19.501 56.5 19.502 56.5C 19.5023 56.5 19.5032 56.5 19.5039 56.5C 19.5033 56.5 19.5087 56.5 19.5075 56.5C 19.5064 56.5 19.5164 56.5001 19.5143 56.5001C 19.5126 56.5001 19.529 56.5005 19.5257 56.5004C 19.5243 56.5003 19.5432 56.5012 19.5402 56.501C 19.5449 56.5013 19.5449 56.5018 19.5362 56.5004C 19.4974 56.4956 19.4726 56.4921 19.3983 56.4713C 19.2063 56.4211 18.983 56.3427 18.6211 56.1318C 17.8895 55.7137 16.7372 54.8163 15.3 52.9L 13.7 54.1ZM 20.4752 57.7216C 21.2644 54.249 24.6739 47.7945 28.6644 44.2474L 27.3357 42.7526C 23.0195 46.5892 19.4024 53.4176 18.5249 57.2784L 20.4752 57.7216ZM 28.6644 44.2474C 33.0539 40.3456 36.0408 39.5 38 39.5L 38 37.5C 35.3865 37.5 31.9461 38.6544 27.3357 42.7526L 28.6644 44.2474ZM 38.0001 1C 40.1409 1 42.8798 2.34114 45.885 4.78381C 48.8762 7.21154 51.9163 10.5426 54.6977 14.2843C 57.4824 18.0262 59.9288 22.0772 61.7007 25.9407C 63.4756 29.8069 64.5001 33.3387 64.5002 36L 66.5002 36C 66.5001 32.9113 65.3371 29.0681 63.5183 25.1062C 61.6965 21.1416 59.1428 16.9113 56.3025 13.0907C 53.459 9.26987 50.2491 5.75721 47.1465 3.23182C 44.0579 0.721356 40.8593 -1 38.0001 -1L 38.0001 1ZM 60.668 52.9453C 59.7628 54.3242 58.6716 55.1842 57.72 55.777C 57.2609 56.0653 56.8837 56.2529 56.5897 56.385C 56.4504 56.4478 56.3504 56.4883 56.2725 56.5184C 56.2372 56.5321 56.2154 56.5401 56.1966 56.5468C 56.1891 56.5495 56.1859 56.5506 56.182 56.5519C 56.1809 56.5523 56.1803 56.5525 56.1808 56.5523C 56.1807 56.5524 56.1819 56.552 56.1818 56.552C 56.1816 56.5521 56.1828 56.5517 56.1827 56.5517C 56.1829 56.5517 56.1832 56.5516 56.1833 56.5515C 56.1836 56.5514 56.1839 56.5513 56.5001 57.5C 56.8164 58.4487 56.8167 58.4486 56.8171 58.4484C 56.8172 58.4484 56.8175 58.4483 56.8178 58.4482C 56.8181 58.4481 56.8189 58.4478 56.8195 58.4476C 56.8203 58.4474 56.8222 58.4467 56.8238 58.4462C 56.8261 58.4454 56.8309 58.4437 56.8356 58.4421C 56.8431 58.4395 56.8571 58.4346 56.872 58.4293C 56.8981 58.4199 56.9427 58.4035 56.9933 58.384C 57.0873 58.3476 57.2373 58.2865 57.4105 58.2088C 57.7415 58.0596 58.2392 57.8097 58.78 57.473C 59.8283 56.8158 61.237 55.6758 62.332 54.0547L 60.668 52.9453ZM 57.4753 57.2784C 56.5978 53.4176 52.9807 46.5892 48.6645 42.7526L 47.3358 44.2474C 51.3262 47.7945 54.7358 54.249 55.525 57.7216L 57.4753 57.2784ZM 48.6645 42.7526C 44.054 38.6544 40.6135 37.5 38 37.5L 38 39.5C 39.9592 39.5 42.9462 40.3456 47.3358 44.2474L 48.6645 42.7526ZM 38.0001 -1C 35.3642 -1 32.4477 0.46243 29.6083 2.63619C 26.7627 4.81812 23.795 7.87952 21.0939 11.2749C 15.7055 18.0519 11.1054 26.4483 9.84424 32.8054L 11.806 33.1946C 12.9799 27.2777 17.3685 19.174 22.6594 12.5196C 25.2978 9.19922 28.0925 6.312 30.824 4.22424C 33.5618 2.12832 36.0372 1 38.0001 1L 38.0001 -1ZM 9.84424 32.8054C 9.62447 33.9177 9.50156 35.0215 9.5 36L 11.5 36C 11.4985 35.133 11.6009 34.2239 11.806 33.1946L 9.84424 32.8054ZM 11.6452 33.5722C 14.1178 30.0283 19.1154 24.3066 29.464 18.8858L 28.536 17.1142C 17.8846 22.6934 12.649 28.6383 10.005 32.4278L 11.6452 33.5722ZM 29.464 18.8858C 37.2348 14.7914 44.2718 14.3278 46.6414 13.9899L 46.3586 12.0101C 44.0616 12.3389 36.6905 12.8668 28.536 17.1142L 29.464 18.8858ZM 38.3162 39.4487C 40.7838 38.6256 45.1265 37.492 50.5 37.5L 50.5 35.5C 44.8735 35.508 40.2162 36.7078 37.6838 37.5513L 38.3162 39.4487ZM 64.5002 36C 64.5002 36.8592 64.482 37.67 64.447 38.4557L 66.4451 38.5443C 66.4808 37.7368 66.5001 36.8818 66.5002 36L 64.5002 36ZM 64.447 38.4557C 64.0443 47.5335 61.6558 51.4636 60.668 52.9453L 62.332 54.0547C 63.5114 52.2858 66.0253 48.0054 66.4451 38.5443L 64.447 38.4557ZM 50.5 37.5C 58.864 37.5 61.8878 38.6367 65.2023 39.4698L 65.6898 37.5302C 62.3736 36.6966 59.136 35.5 50.5 35.5L 50.5 37.5ZM 7.2 56.6C 7.71123 57.2814 8.59665 58.3743 9.5466 59.3852C 10.4714 60.3683 11.5776 61.4068 12.5528 61.8944L 13.4472 60.1056C 12.8224 59.7932 11.9286 58.9984 11.0034 58.0148C 10.1033 57.059 9.28875 56.052 8.8 55.4L 7.2 56.6ZM 12.5528 61.8944C 14.5528 62.8944 16.3592 63.7677 17.7 65.6L 19.3 64.4C 17.6408 62.2323 15.4473 61.1056 13.4472 60.1056L 12.5528 61.8944ZM 17.7 65.6C 18.5089 66.6785 20.7618 68.9251 22.8878 70.9894C 25.0466 73.0855 27.1663 75.0804 27.7929 75.7071L 29.2071 74.2929C 28.5589 73.6449 26.4286 71.6398 24.2811 69.5545C 22.1008 67.4376 19.9911 65.3215 19.3 64.4L 17.7 65.6ZM 27.7929 75.7071C 28.5201 76.4336 29.2425 77.2473 29.6523 78.0485C 30.074 78.857 29.9371 79.1487 29.7929 79.2929L 31.2071 80.7071C 32.3335 79.5807 31.9466 78.1224 31.4256 77.1236C 30.8928 76.1174 29.9799 75.0664 29.2071 74.2929L 27.7929 75.7071ZM 29.7929 79.2929C 29.5477 79.5381 29.1471 79.633 28.4682 79.4039C 27.7594 79.1757 27.1435 78.7346 26.7071 78.2929L 25.2929 79.7071C 25.8565 80.2654 26.8553 80.9596 27.8288 81.299C 28.8323 81.6376 30.1818 81.7324 31.2071 80.7071L 29.7929 79.2929ZM 26.7071 78.2929C 26.3118 77.8976 25.2703 76.8584 24.0129 75.8579C 22.7881 74.8854 21.1992 73.82 19.6961 73.5194L 19.3039 75.4806C 20.3008 75.68 21.5666 76.4693 22.7692 77.4242C 23.9392 78.3511 24.8976 79.3118 25.2929 79.7071L 26.7071 78.2929ZM 19.6961 73.5194C 18.8631 73.3578 17.6172 73.3638 16.5319 73.6831C 15.4051 74.0265 14.2599 74.744 13.6056 76.0528L 15.3944 76.9472C 15.7401 76.256 16.3594 75.8265 17.1149 75.5963C 17.9119 75.342 18.666 75.348 19.3039 75.4806L 19.6961 73.5194ZM 13.6056 76.0528C 12.3293 78.6054 13.6462 81.5605 15.2929 83.2071L 16.7071 81.7929C 15.3538 80.4395 14.6707 78.3946 15.3944 76.9472L 13.6056 76.0528ZM 15.2929 83.2071C 16.0245 83.9383 17.1949 85.2331 18.6386 86.3538C 20.0801 87.4677 21.9224 88.5 24 88.5L 24 86.5C 22.5776 86.5 21.1699 85.7823 19.8614 84.7712C 18.5551 83.7669 17.4755 82.5617 16.7071 81.7929L 15.2929 83.2071ZM 24 88.5C 25.1091 88.494 26.348 88.2248 27.4165 87.9734C 28.5415 87.7087 29.3968 87.5 30 87.5L 30 85.5C 29.1032 85.5 27.9585 85.7913 26.9585 86.0266C 25.902 86.2752 24.8909 86.506 24 86.5L 24 88.5ZM 30 87.5C 30.2334 87.5 30.6836 87.7656 30.8894 88.2596C 30.9776 88.4713 30.9755 88.632 30.944 88.733C 30.9192 88.8123 30.846 88.959 30.5528 89.1056L 31.4472 90.8944C 32.154 90.541 32.6433 90.0002 32.8529 89.3295C 33.0557 88.6805 32.9599 88.0287 32.7356 87.4904C 32.3164 86.4844 31.2666 85.5 30 85.5L 30 87.5ZM 30.5528 89.1056C 28.7554 90.0042 25.9367 90.5 22.5 90.5L 22.5 92.5C 26.0633 92.5 29.2446 91.9958 31.4472 90.8944L 30.5528 89.1056ZM 22.5 90.5C 20.9421 90.5 18.8394 89.9328 16.8481 89.0272C 14.8481 88.1176 13.1388 86.9478 12.2809 85.8753L 10.7191 87.1247C 11.8612 88.5522 13.8975 89.8824 16.0202 90.8478C 18.1517 91.8172 20.549 92.5 22.5 92.5L 22.5 90.5ZM 12.2809 85.8753C 10.7425 83.9536 7.3769 79.0193 5.91915 75.6061L 4.08085 76.3939C 5.6231 79.9807 9.13399 85.1421 10.7191 87.1247L 12.2809 85.8753ZM 5.91915 75.6061C 4.68985 72.7437 2.01673 68.3066 0.843662 66.4631L -0.843662 67.5369C 0.316606 69.36 2.91015 73.6563 4.08085 76.3939L 5.91915 75.6061ZM 67.2 55.4C 66.7112 56.052 65.8967 57.059 64.9966 58.0148C 64.0714 58.9984 63.1776 59.7932 62.5528 60.1056L 63.4472 61.8944C 64.4224 61.4068 65.5286 60.3683 66.4534 59.3852C 67.4034 58.3743 68.2888 57.2814 68.8 56.6L 67.2 55.4ZM 62.5528 60.1056C 60.5527 61.1056 58.3592 62.2323 56.7 64.4L 58.3 65.6C 59.6408 63.7677 61.4472 62.8944 63.4472 61.8944L 62.5528 60.1056ZM 56.7 64.4C 56.0089 65.3215 53.8992 67.4376 51.7189 69.5545C 49.5714 71.6398 47.4411 73.6449 46.7929 74.2929L 48.2071 75.7071C 48.8337 75.0804 50.9534 73.0855 53.1122 70.9894C 55.2382 68.9251 57.4911 66.6785 58.3 65.6L 56.7 64.4ZM 46.7929 74.2929C 46.0201 75.0664 45.1072 76.1174 44.5744 77.1236C 44.0534 78.1224 43.6665 79.5807 44.7929 80.7071L 46.2071 79.2929C 46.0629 79.1487 45.926 78.857 46.3477 78.0485C 46.7575 77.2473 47.4799 76.4336 48.2071 75.7071L 46.7929 74.2929ZM 44.7929 80.7071C 45.8182 81.7324 47.1677 81.6376 48.1712 81.299C 49.1447 80.9596 50.1435 80.2654 50.7071 79.7071L 49.2929 78.2929C 48.8565 78.7346 48.2406 79.1757 47.5318 79.4039C 46.8529 79.633 46.4523 79.5381 46.2071 79.2929L 44.7929 80.7071ZM 50.7071 79.7071C 51.1024 79.3118 52.0608 78.3511 53.2308 77.4242C 54.4334 76.4693 55.6992 75.68 56.6961 75.4806L 56.3039 73.5194C 54.8008 73.82 53.2119 74.8854 51.9871 75.8579C 50.7297 76.8584 49.6882 77.8976 49.2929 78.2929L 50.7071 79.7071ZM 56.6961 75.4806C 57.334 75.348 58.0881 75.342 58.8851 75.5963C 59.6406 75.8265 60.2599 76.256 60.6056 76.9472L 62.3944 76.0528C 61.7401 74.744 60.5949 74.0265 59.4681 73.6831C 58.3828 73.3638 57.1369 73.3578 56.3039 73.5194L 56.6961 75.4806ZM 60.6056 76.9472C 61.3293 78.3946 60.6462 80.4395 59.2929 81.7929L 60.7071 83.2071C 62.3538 81.5605 63.6707 78.6054 62.3944 76.0528L 60.6056 76.9472ZM 59.2929 81.7929C 58.5245 82.5617 57.4449 83.7669 56.1386 84.7712C 54.8301 85.7823 53.4224 86.5 52 86.5L 52 88.5C 54.0776 88.5 55.9199 87.4677 57.3614 86.3538C 58.8051 85.2331 59.9755 83.9383 60.7071 83.2071L 59.2929 81.7929ZM 52 86.5C 51.1091 86.506 50.098 86.2752 49.0415 86.0266C 48.0415 85.7913 46.8968 85.5 46 85.5L 46 87.5C 46.6032 87.5 47.4585 87.7087 48.5835 87.9734C 49.652 88.2248 50.8909 88.494 52 88.5L 52 86.5ZM 46 85.5C 44.7334 85.5 43.6836 86.4844 43.2644 87.4904C 43.0401 88.0287 42.9443 88.6805 43.1471 89.3295C 43.3567 90.0002 43.846 90.541 44.5528 90.8944L 45.4472 89.1056C 45.154 88.959 45.0808 88.8123 45.056 88.733C 45.0245 88.632 45.0224 88.4713 45.1106 88.2596C 45.3164 87.7656 45.7666 87.5 46 87.5L 46 85.5ZM 44.5528 90.8944C 46.7554 91.9958 49.9367 92.5 53.5 92.5L 53.5 90.5C 50.0633 90.5 47.2446 90.0042 45.4472 89.1056L 44.5528 90.8944ZM 53.5 92.5C 55.451 92.5 57.8483 91.8172 59.9798 90.8478C 62.1025 89.8824 64.1388 88.5522 65.2809 87.1247L 63.7191 85.8753C 62.8612 86.9478 61.1519 88.1176 59.1519 89.0272C 57.1606 89.9328 55.0579 90.5 53.5 90.5L 53.5 92.5ZM 65.2809 87.1247C 66.866 85.1421 70.3769 79.9807 71.9191 76.3939L 70.0809 75.6061C 68.6231 79.0193 65.2575 83.9536 63.7191 85.8753L 65.2809 87.1247ZM 71.9191 76.3939C 73.0899 73.6563 75.6834 69.36 76.8437 67.5369L 75.1563 66.4631C 73.9833 68.3066 71.3101 72.7437 70.0809 75.6061L 71.9191 76.3939Z"/>
<path id="path1_stroke" d="M 1 0C 1 -0.552285 0.552285 -1 0 -1C -0.552285 -1 -1 -0.552285 -1 0L 1 0ZM 0.105573 5.94721C 0.352562 6.44119 0.953235 6.64142 1.44721 6.39443C 1.94119 6.14744 2.14142 5.54676 1.89443 5.05279L 0.105573 5.94721ZM 38 0C 38 -0.552285 37.5523 -1 37 -1C 36.4477 -1 36 -0.552285 36 0L 38 0ZM 35.1056 5.55279C 34.8586 6.04676 35.0588 6.64744 35.5528 6.89443C 36.0468 7.14142 36.6474 6.94119 36.8944 6.44721L 35.1056 5.55279ZM 11.8575 21.9855C 11.5733 21.5119 10.9591 21.3584 10.4855 21.6425C 10.0119 21.9267 9.85836 22.5409 10.1425 23.0145L 11.8575 21.9855ZM 26.7433 23.169C 27.1128 22.7585 27.0795 22.1262 26.669 21.7567C 26.2585 21.3872 25.6262 21.4205 25.2567 21.831L 26.7433 23.169ZM 6.28087 -0.624695C 5.93586 -1.05596 5.30657 -1.12588 4.8753 -0.780869C 4.44404 -0.435859 4.37412 0.193433 4.71913 0.624695L 6.28087 -0.624695ZM 15.7071 0.707107C 16.0976 0.316582 16.0976 -0.316582 15.7071 -0.707107C 15.3166 -1.09763 14.6834 -1.09763 14.2929 -0.707107L 15.7071 0.707107ZM 22.2809 -0.624695C 21.9359 -1.05596 21.3066 -1.12588 20.8753 -0.780869C 20.444 -0.435859 20.3741 0.193433 20.7191 0.624695L 22.2809 -0.624695ZM 31.7071 0.707107C 32.0976 0.316582 32.0976 -0.316582 31.7071 -0.707107C 31.3166 -1.09763 30.6834 -1.09763 30.2929 -0.707107L 31.7071 0.707107ZM 18 15L 17.1679 15.5547C 17.3534 15.8329 17.6656 16 18 16C 18.3344 16 18.6466 15.8329 18.8321 15.5547L 18 15ZM 13 16L 12.1679 15.4453C 11.9578 15.7605 11.9438 16.1673 12.1318 16.4961L 13 16ZM 23 16L 23.8682 16.4961C 24.0562 16.1673 24.0422 15.7605 23.8321 15.4453L 23 16ZM -1 0C -1 1.18075 -0.807311 4.12145 0.105573 5.94721L 1.89443 5.05279C 1.20731 3.67855 1 1.15258 1 0L -1 0ZM 36 0C 36.0003 0.560624 35.9538 1.59611 35.8083 2.70862C 35.6603 3.84793 35.4255 4.91288 35.1056 5.55279L 36.8944 6.44721C 37.3745 5.48712 37.6397 4.1354 37.7917 2.96638C 37.9462 1.77055 37.9997 0.606043 38 0L 36 0ZM 10.1425 23.0145C 11.1601 24.7104 13.9186 28.5 18.5 28.5L 18.5 26.5C 15.0814 26.5 12.8399 23.6229 11.8575 21.9855L 10.1425 23.0145ZM 18.5 28.5C 20.581 28.5 22.3027 27.5078 23.6402 26.3932C 24.9641 25.2833 26.0124 23.9804 26.7433 23.169L 25.2567 21.831C 24.4876 22.6862 23.5359 23.8833 22.3598 24.8568C 21.1973 25.8255 19.919 26.5 18.5 26.5L 18.5 28.5ZM 4.71913 0.624695C 5.43501 1.51955 7.0263 3.5 10.5 3.5L 10.5 1.5C 7.9737 1.5 6.89832 0.147119 6.28087 -0.624695L 4.71913 0.624695ZM 10.5 3.5C 13.2411 3.5 14.969 1.44524 15.7071 0.707107L 14.2929 -0.707107C 13.3644 0.221429 12.2481 1.5 10.5 1.5L 10.5 3.5ZM 20.7191 0.624695C 21.435 1.51955 23.0263 3.5 26.5 3.5L 26.5 1.5C 23.9737 1.5 22.8983 0.147119 22.2809 -0.624695L 20.7191 0.624695ZM 26.5 3.5C 29.2411 3.5 30.969 1.44524 31.7071 0.707107L 30.2929 -0.707107C 29.3644 0.221429 28.2481 1.5 26.5 1.5L 26.5 3.5ZM 18.8321 14.4453C 18.6183 14.1304 18.1229 13.6112 17.5556 13.2856C 16.9389 12.9475 16.1069 12.7436 15.1838 13.0513L 15.8162 14.9487C 16.0931 14.8564 16.3445 14.9025 16.5944 15.0394C 16.8658 15.1882 17.0768 15.4179 17.1679 15.5547L 18.8321 14.4453ZM 15.1838 13.0513C 13.6811 13.5522 12.5574 14.8611 12.1679 15.4453L 13.8321 16.5547C 14.1093 16.1389 14.9189 15.2478 15.8162 14.9487L 15.1838 13.0513ZM 12.1318 16.4961C 12.5425 17.2149 13.387 18.1822 14.3775 18.9701C 15.3468 19.7412 16.6544 20.5 18 20.5L 18 18.5C 17.3456 18.5 16.4865 18.0922 15.6225 17.4049C 14.7797 16.7344 14.1242 15.9518 13.8682 15.5039L 12.1318 16.4961ZM 18.8321 15.5547C 18.9232 15.4179 19.1342 15.1882 19.4056 15.0394C 19.6555 14.9025 19.9069 14.8564 20.1838 14.9487L 20.8162 13.0513C 19.8931 12.7436 19.0611 12.9475 18.4444 13.2856C 17.8771 13.6112 17.3817 14.1304 17.1679 14.4453L 18.8321 15.5547ZM 20.1838 14.9487C 21.0811 15.2478 21.8907 16.1389 22.1679 16.5547L 23.8321 15.4453C 23.4426 14.8611 22.3189 13.5522 20.8162 13.0513L 20.1838 14.9487ZM 22.1318 15.5039C 21.8758 15.9518 21.2203 16.7344 20.3775 17.4049C 19.5135 18.0922 18.6544 18.5 18 18.5L 18 20.5C 19.3456 20.5 20.6532 19.7412 21.6225 18.9701C 22.613 18.1822 23.4575 17.2149 23.8682 16.4961L 22.1318 15.5039Z"/>
</defs>
</svg>
