<svg width="158" height="88" viewBox="0 0 158 88" version="1.1" xmlns="http://www.w3.org/2000/svg" xmlns:xlink="http://www.w3.org/1999/xlink">
<title>&#208;&#191;&#208;&#190;&#209;&#129;&#208;&#181;&#209;&#137;&#208;&#181;&#208;&#189;&#208;&#184;&#208;&#181;</title>
<desc>Created using Figma</desc>
<g id="Canvas" transform="matrix(2 0 0 2 -4620 -3778)">
<g id="&#208;&#191;&#208;&#190;&#209;&#129;&#208;&#181;&#209;&#137;&#208;&#181;&#208;&#189;&#208;&#184;&#208;&#181;">
<g id="Group">
<g id="Vector 10">
<use xlink:href="#path0_stroke" transform="translate(2311 1899)" fill="#31AF31"/>
</g>
<g id="Vector 10">
<use xlink:href="#path0_stroke" transform="matrix(-1 0 0 1 2387.04 1899)" fill="#31AF31"/>
</g>
</g>
<g id="Vector 10">
<use xlink:href="#path1_stroke" transform="translate(2330 1890.5)" fill="#31AF31"/>
</g>
</g>
</g>
<defs>
<path id="path0_stroke" d="M 10.1682 20.122L 10.7313 20.9483L 11.1682 20.6506L 11.1682 20.122L 10.1682 20.122ZM 0.101815 33L -0.895236 33.0767L -0.824178 34L 0.101815 34L 0.101815 33ZM 15 -1C 12.519 -1 10.7342 -0.0872787 9.57779 1.19017C 8.44769 2.43856 7.9602 3.98872 7.9602 5.23171L 9.9602 5.23171C 9.9602 4.46249 10.278 3.3968 11.0605 2.53239C 11.8167 1.69703 13.0518 1 15 1L 15 -1ZM 7.9602 5.23171C 7.9602 7.2439 7.9602 12.4756 7.9602 13.2805L 9.9602 13.2805C 9.9602 12.4756 9.9602 7.2439 9.9602 5.23171L 7.9602 5.23171ZM 7.9602 13.2805C 7.9602 14.1746 8.63903 14.7758 8.85726 14.9939C 9.24301 15.3794 9.16816 15.3819 9.16816 15.2927L 11.1682 15.2927C 11.1682 14.3986 10.4893 13.7974 10.2711 13.5793C 9.88535 13.1937 9.9602 13.1913 9.9602 13.2805L 7.9602 13.2805ZM 9.16816 15.2927C 9.16816 15.9366 9.16816 18.7805 9.16816 20.122L 11.1682 20.122C 11.1682 18.7805 11.1682 15.9366 11.1682 15.2927L 9.16816 15.2927ZM 9.60502 19.2956C 8.12703 20.3028 5.86673 21.8559 3.8966 23.2369C 2.91111 23.9278 1.99253 24.5796 1.28184 25.0977C 0.606717 25.59 0.0274218 26.0264 -0.202449 26.2561L 1.21139 27.6707C 1.16605 27.7177 1.37323 27.5293 1.5944 27.3589C 1.82074 27.1842 2.11123 26.9681 2.46011 26.7138C 3.16038 26.2032 4.06381 25.5622 5.04461 24.8746C 7.00707 23.499 9.25649 21.9533 10.7313 20.9483L 9.60502 19.2956ZM -0.202449 26.2561C -0.437261 26.4908 -0.567528 26.7813 -0.645769 27.0018C -0.720778 27.2176 -0.789696 27.5031 -0.834876 27.7649C -0.920129 28.2714 -0.968942 28.9113 -0.988317 29.5387C -1.02567 30.787 -0.963446 32.1888 -0.895236 33.0767L 1.09887 32.9233C 1.03286 32.0673 0.974283 30.7727 1.01075 29.5997C 1.02829 29.0165 1.06504 28.5145 1.13665 28.1012C 1.16991 27.9031 1.19725 27.7843 1.23916 27.6705C 1.27783 27.5614 1.28514 27.597 1.21139 27.6707L -0.202449 26.2561ZM 0.101815 34L 15 34L 15 32L 0.101815 32L 0.101815 34ZM 15 1C 16.9482 1 18.1833 1.69703 18.9395 2.53239C 19.722 3.3968 20.0398 4.46249 20.0398 5.23171L 22.0398 5.23171C 22.0398 3.98872 21.5523 2.43856 20.4222 1.19017C 19.2658 -0.0872787 17.481 -1 15 -1L 15 1ZM 20.0398 5.23171C 20.0398 7.2439 20.0398 12.4756 20.0398 13.2805L 22.0398 13.2805C 22.0398 12.4756 22.0398 7.2439 22.0398 5.23171L 20.0398 5.23171ZM 20.0398 13.2805C 20.0398 13.1913 20.1147 13.1937 19.7289 13.5793C 19.5107 13.7974 18.8318 14.3986 18.8318 15.2927L 20.8318 15.2927C 20.8318 15.3819 20.757 15.3794 21.1427 14.9939C 21.361 14.7758 22.0398 14.1746 22.0398 13.2805L 20.0398 13.2805ZM 18.8318 15.2927C 18.8318 15.7572 18.8318 17.3665 18.8318 18.7308L 20.8318 18.7308C 20.8318 17.3665 20.8318 15.7572 20.8318 15.2927L 18.8318 15.2927Z"/>
<path id="path1_stroke" d="M 12.6264 25L 13.1898 25.8262L 13.6264 25.5285L 13.6264 25L 12.6264 25ZM 0.126431 41L -0.870624 41.0767L -0.799601 42L 0.126431 42L 0.126431 41ZM 24.6264 25L 23.6264 25L 23.6264 25.5285L 24.0631 25.8262L 24.6264 25ZM 37.1264 41L 37.1264 42L 38.0525 42L 38.1235 41.0767L 37.1264 41ZM 18.6264 -1C 15.6098 -1 13.4599 0.107982 12.0724 1.64159C 10.7112 3.1461 10.1264 5.01327 10.1264 6.5L 12.1264 6.5C 12.1264 5.48673 12.5417 4.1039 13.5555 2.98341C 14.5429 1.89202 16.143 1 18.6264 1L 18.6264 -1ZM 10.1264 6.5C 10.1264 9 10.1264 15.5 10.1264 16.5L 12.1264 16.5C 12.1264 15.5 12.1264 9 12.1264 6.5L 10.1264 6.5ZM 10.1264 16.5C 10.1264 17.4915 10.878 18.1657 11.1693 18.4571C 11.628 18.9157 11.6264 18.9915 11.6264 19L 13.6264 19C 13.6264 18.0085 12.8749 17.3343 12.5835 17.0429C 12.1249 16.5843 12.1264 16.5085 12.1264 16.5L 10.1264 16.5ZM 11.6264 19C 11.6264 19.8 11.6264 23.3333 11.6264 25L 13.6264 25C 13.6264 23.3333 13.6264 19.8 13.6264 19L 11.6264 19ZM 12.0631 24.1738C 10.2282 25.4249 7.42272 27.3536 4.97722 29.0688C 3.75404 29.9267 2.61522 30.7352 1.73396 31.3781C 0.888277 31.995 0.18812 32.5241 -0.0806762 32.7929L 1.33354 34.2071C 1.46474 34.0759 2.00625 33.655 2.91265 32.9938C 3.78348 32.3585 4.90715 31.5608 6.12564 30.7062C 8.56347 28.9964 11.358 27.0751 13.1898 25.8262L 12.0631 24.1738ZM -0.0806762 32.7929C -0.334897 33.0471 -0.481747 33.3685 -0.574096 33.6289C -0.663222 33.8846 -0.743757 34.2191 -0.798412 34.5366C -0.90262 35.1545 -0.961769 35.9328 -0.985605 36.707C -1.03188 38.2488 -0.955057 39.9774 -0.870624 41.0767L 1.12349 40.9233C 1.04125 39.8559 0.968072 38.2345 1.01347 36.768C 1.03546 36.038 1.08256 35.3975 1.17315 34.8727C 1.21589 34.6189 1.25489 34.4511 1.31094 34.2972C 1.36378 34.1482 1.38776 34.1529 1.33354 34.2071L -0.0806762 32.7929ZM 0.126431 42L 18.6264 42L 18.6264 40L 0.126431 40L 0.126431 42ZM 18.6264 1C 21.1098 1 22.7099 1.89202 23.6974 2.98341C 24.7112 4.1039 25.1264 5.48673 25.1264 6.5L 27.1264 6.5C 27.1264 5.01327 26.5417 3.1461 25.1805 1.64159C 23.7929 0.107982 21.643 -1 18.6264 -1L 18.6264 1ZM 25.1264 6.5C 25.1264 9 25.1264 15.5 25.1264 16.5L 27.1264 16.5C 27.1264 15.5 27.1264 9 27.1264 6.5L 25.1264 6.5ZM 25.1264 16.5C 25.1264 16.5085 25.128 16.5843 24.6693 17.0429C 24.378 17.3343 23.6264 18.0085 23.6264 19L 25.6264 19C 25.6264 18.9915 25.6249 18.9157 26.0835 18.4571C 26.3749 18.1657 27.1264 17.4915 27.1264 16.5L 25.1264 16.5ZM 23.6264 19C 23.6264 19.8 23.6264 23.3333 23.6264 25L 25.6264 25C 25.6264 23.3333 25.6264 19.8 25.6264 19L 23.6264 19ZM 24.0631 25.8262C 25.8948 27.0751 28.6894 28.9964 31.1272 30.7062C 32.3457 31.5608 33.4694 32.3585 34.3402 32.9938C 35.2466 33.655 35.7881 34.0759 35.9193 34.2071L 37.3335 32.7929C 37.0647 32.5241 36.3646 31.995 35.5189 31.3781C 34.6376 30.7352 33.4988 29.9267 32.2756 29.0688C 29.8301 27.3536 27.0247 25.4249 25.1898 24.1738L 24.0631 25.8262ZM 35.9193 34.2071C 35.8651 34.1529 35.8891 34.1482 35.9419 34.2972C 35.998 34.4511 36.037 34.6189 36.0797 34.8727C 36.1703 35.3975 36.2174 36.038 36.2394 36.768C 36.2848 38.2345 36.2116 39.8559 36.1294 40.9233L 38.1235 41.0767C 38.2079 39.9774 38.2847 38.2488 38.2385 36.707C 38.2146 35.9328 38.1555 35.1545 38.0513 34.5366C 37.9966 34.2191 37.9161 33.8846 37.827 33.6289C 37.7346 33.3685 37.5878 33.0471 37.3335 32.7929L 35.9193 34.2071ZM 37.1264 40L 18.6264 40L 18.6264 42L 37.1264 42L 37.1264 40Z"/>
</defs>
</svg>
