<svg width="1812" height="567" viewBox="0 0 1812 567" version="1.1" xmlns="http://www.w3.org/2000/svg" xmlns:xlink="http://www.w3.org/1999/xlink">
<title>taufit-logo</title>
<desc>Created using Figma</desc>
<g id="Canvas" transform="translate(80 2021)">
<g id="taufit-logo">
<g id="Vector">
<use xlink:href="#path0_fill" transform="translate(-80 -2021)" fill="#FFFFFF"/>
</g>
<g id="Vector">
<use xlink:href="#path1_fill" transform="translate(-80 -2021)" fill="#3737C6"/>
</g>
<g id="Group">
<g id="Vector">
<use xlink:href="#path2_fill" transform="translate(321.351 -1944.6)" fill="#3737C6"/>
</g>
<g id="Vector">
<use xlink:href="#path3_fill" transform="translate(932.684 -1922.72)" fill="#31AF31"/>
</g>
<g id="Vector">
<use xlink:href="#path4_fill" transform="translate(1313.55 -1920.34)" fill="#31AF31"/>
</g>
<g id="Vector">
<use xlink:href="#path5_fill" transform="translate(-28.1229 -1920.34)" fill="#3737C6"/>
</g>
</g>
</g>
</g>
<defs>
<path id="path0_fill" fill-rule="evenodd" d="M 1536.15 319.735C 1536.4 318.173 1536.57 316.61 1536.73 315.048L 1536.15 315.048L 1536.15 319.735ZM 1374.65 49.016L 1431.12 48.9337C 1456.84 48.8515 1492.27 49.0982 1502.13 49.0982C 1522.76 49.0982 1540.26 46.3844 1557.2 59.1309C 1560.57 61.6802 1563.03 63.9006 1565.66 67.0256C 1568.46 70.315 1569.61 72.782 1572.24 76.4004C 1588.76 55.5948 1601.41 56.006 1634.62 53.2922C 1661.17 51.1541 1687.71 49.1804 1714.26 47.0423C 1741.38 44.822 1759.88 60.1178 1767.69 78.5385C 1776.32 99.0974 1766.21 130.347 1763.58 152.962C 1783.47 154.442 1799.08 165.79 1806.81 181.744C 1812.64 193.833 1812.97 202.55 1810.67 215.707C 1807.47 234.128 1801.71 284.867 1798.42 297.449C 1794.73 311.183 1786.18 321.051 1777.22 327.054C 1764.07 335.853 1753.22 335.607 1735.06 335.607C 1733.74 336.018 1728.15 372.202 1727.82 375.902C 1755.44 374.833 1774.75 391.774 1780.92 413.237C 1784.7 426.395 1781.58 440.457 1779.69 453.779C 1777.88 467.019 1776.15 480.095 1774.34 493.334C 1770.73 519.403 1770.97 539.88 1745.25 555.011C 1737.27 559.781 1722.73 562.33 1708.26 563.81C 1679 566.935 1651.14 568.004 1621.88 565.702C 1607 564.468 1583.99 561.097 1560.65 547.445C 1540.26 535.521 1526.29 519.403 1514.79 496.788C 1513.22 499.667 1511.58 517.018 1510.26 522.117C 1504.76 543.416 1485.94 560.603 1460.87 560.932C 1421.83 561.59 1382.05 561.097 1343.01 560.932C 1323.53 560.85 1310.95 551.886 1302.82 542.429C 1292.79 530.669 1289.25 516.031 1292.3 496.871C 1295.09 479.93 1297.8 463.072 1300.51 446.131C 1303.23 429.52 1306.93 411.592 1308.73 395.063C 1285.8 398.27 1235.5 395.392 1207.97 396.461C 1203.78 425.655 1198.43 455.177 1193.67 484.289C 1187.91 519.321 1188.24 539.551 1162.35 554.6C 1149.12 562.248 1134.82 560.932 1118.13 560.932L 1016.63 560.932C 1004.63 560.932 996.164 559.699 985.972 553.695C 983.671 552.297 980.054 549.255 978.41 548.515C 974.301 552.955 964.438 557.807 956.63 559.616C 947.589 561.754 934.767 560.932 925.069 560.932C 912.411 560.932 835.974 561.754 827.016 560.356C 807.619 557.396 813.618 551.311 803.345 555.505C 778.359 565.62 744.825 569.32 717.784 565.373C 689.757 561.343 661.484 548.186 643.402 528.202C 640.936 531.574 639.457 536.261 636.58 540.126C 628.361 551.146 615.95 559.041 600.827 560.685C 591.951 561.59 505.158 560.932 488.555 560.932C 474.912 560.932 468.336 559.863 457.816 554.189C 455.679 552.955 453.789 554.6 451.241 555.587C 439.487 560.439 426.501 563.728 413.844 565.455C 396.42 567.84 377.351 567.511 360.091 564.139C 315.298 555.258 284.312 526.558 265.819 483.22C 263.846 488.071 261.216 511.509 259.819 518.745C 257.6 530.752 251.682 539.962 245.436 546.047C 226.614 564.386 208.039 560.932 177.135 560.932C 151.163 560.932 79.1644 565.702 58.8634 554.353C 38.6445 543.005 30.0145 522.035 33.8775 498.104L 63.1373 318.748C 65.1099 306.742 67.0824 294.982 69.055 282.894C 70.0413 276.562 74.9727 251.809 74.5618 247.45C 52.5347 247.45 39.1377 249.506 22.5352 238.569C 13.7408 232.73 6.34367 223.438 2.80948 212.994C -1.46443 200.576 -0.149378 191.777 2.06977 179.113C 4.86424 162.83 15.8778 92.2719 18.9188 83.4727C 24.0968 68.588 36.261 56.7461 51.4662 51.6475C 64.4523 47.3713 96.9998 49.0982 112.78 49.0982C 177.135 49.0982 241.491 49.0982 305.846 49.0982C 326.476 49.0982 349.242 48.1936 369.461 49.6739C 370.53 46.22 375.297 39.1477 377.351 36.5984C 386.803 24.5098 396.995 15.9573 412.693 9.87187C 435.46 1.07267 462.419 2.79962 488.062 2.63515L 816.742 1.15491C 844.029 1.07267 871.398 0.9082 898.768 0.825965C 926.795 0.661494 954.822 0.168081 982.849 0.00360979C 993.944 0.00360979 1005.29 -0.160861 1016.22 1.73056C 1029.37 3.95091 1038.82 7.73375 1049.59 14.6415C 1058.05 20.0691 1073.5 36.4339 1076.63 49.1804C 1120.11 48.1936 1164.74 49.0982 1208.38 49.0982C 1252.02 49.0982 1295.67 49.0982 1339.39 49.0982C 1351.14 49.0982 1362.9 48.9337 1374.65 49.016Z"/>
<path id="path1_fill" fill-rule="evenodd" d="M 1739.58 173.438C 1748.95 173.521 1762.67 172.369 1770.81 175.165C 1778.7 177.879 1785.27 183.964 1788.48 191.037C 1793.16 200.987 1791.11 209.211 1789.47 220.066L 1780.75 278.453C 1778.95 290.048 1778.95 295.805 1772.53 303.699C 1759.47 319.9 1740.56 313.814 1716.97 315.13L 1703 398.681C 1721.91 399.093 1729.88 393.83 1742.29 398.352C 1751.66 401.724 1760.04 410.77 1761.93 422.283C 1763.16 430.589 1759.22 451.806 1757.99 461.016C 1756.18 474.009 1754.45 486.838 1752.64 499.831C 1750.67 514.469 1750.26 524.091 1741.63 532.314C 1732.92 540.455 1723.3 541.196 1708.75 543.005C 1683.11 546.294 1651.39 547.692 1625.41 545.472C 1540.18 538.153 1514.37 473.927 1522.68 403.287L 1508.79 403.287C 1504.76 428.286 1500.73 453.204 1496.7 478.121C 1495.63 484.946 1494.48 491.69 1493.42 498.433C 1492.35 504.683 1491.53 513.235 1489.72 518.91C 1486.43 529.518 1476.65 538.975 1463.5 540.209C 1455.69 540.949 1378.51 540.373 1368.4 540.373C 1353.69 540.373 1336.68 542.511 1325.58 535.439C 1316.62 529.765 1309.72 518.087 1312.27 502.38L 1337.01 349.834L 1326.9 349.834C 1325.34 357.728 1323.53 361.1 1317.77 367.185C 1312.27 373.106 1304.05 375.902 1293.12 375.82C 1278.65 375.82 1192.6 375.327 1191.12 375.82C 1189.56 377.136 1186.85 398.27 1186.19 402.464L 1170.41 499.091C 1168.68 509.453 1168.19 519.814 1162.68 527.298C 1158.24 533.301 1151.17 539.386 1139.91 540.291C 1124.55 541.442 1107.53 540.373 1091.83 540.373C 1069.81 540.373 1011.78 543.251 997.89 538.564C 989.506 535.768 984.246 530.094 979.89 531.574C 966.739 536.015 958.356 540.373 943.151 540.373L 835.728 540.373C 820.276 540.291 817.481 533.959 810.824 529.189C 803.92 531.656 798.66 536.179 783.783 540.455C 752.633 549.501 712.278 548.35 684.908 533.877C 667.155 524.502 654.662 512.166 644.717 496.459C 640.936 490.456 639.21 484.042 637.402 476.147L 624.416 476.147C 624.663 484.864 625.074 490.456 625.567 502.463C 628.115 526.393 614.8 540.373 591.869 540.373L 483.952 540.373C 467.761 540.291 463.651 532.232 459.049 529.025C 444.172 536.426 432.583 541.936 413.187 544.732C 395.022 547.445 373.982 546.788 356.886 542.265C 293.106 525.324 264.668 453.944 280.285 394.323L 259.326 394.323L 242.97 494.239C 240.422 509.864 240.504 525.242 226.943 534.863C 220.121 539.633 213.71 540.373 203.847 540.373L 90.9998 540.373C 81.4658 540.373 74.644 540.126 67.5756 535.604C 45.0554 521.048 55.5758 493.499 59.2743 470.391L 91.082 275.493C 93.6299 259.95 97.2463 242.434 98.9723 226.974C 89.1917 225.822 72.096 226.809 61.4935 226.809C 47.6033 226.809 40.2061 227.056 31.3296 219.408C 14.3161 204.77 22.1242 183.553 26.1516 160.034C 29.768 138.57 33.22 117.025 37.0007 95.6435C 38.8089 85.1996 45.302 77.3872 52.5347 73.5222C 62.562 68.1769 74.1508 69.7393 86.4794 69.7393L 349.818 69.7393C 355.653 69.7393 362.639 69.2459 368.146 70.5617C 374.721 72.0419 376.694 74.3445 381.297 76.8116C 385.981 51.0719 404.803 31.9932 429.46 26.1545C 444.008 22.7006 460.446 23.3585 475.816 23.2763L 918.74 21.3026C 935.178 21.2204 951.616 21.1381 968.137 21.0559C 983.917 20.9737 1000.03 19.4112 1015.48 22.4539C 1036.68 26.7302 1049.09 37.503 1056.98 55.2659C 1059.12 59.9533 1061.42 71.9597 1062.82 74.509C 1075.97 68.1769 1081.07 69.7393 1096.85 69.7393L 1385.58 69.7393L 1385.91 69.7393C 1406.05 69.7393 1426.27 69.7393 1446.4 69.7393L 1517.09 69.7393C 1532.29 69.7393 1538.05 69.7393 1547.58 77.8806C 1553.74 83.1437 1558.92 93.9988 1557.03 106.17C 1556.46 110.117 1555.8 113.982 1555.14 117.847L 1579.55 117.847C 1581.77 107.65 1584.57 95.9725 1586.95 91.6962C 1594.35 78.9497 1602.65 76.4826 1620.98 75.0024L 1715.17 67.6012C 1732.34 66.2032 1742.95 74.1801 1748.12 85.3641C 1753.71 97.206 1748.62 115.627 1746.48 128.867C 1744.26 143.34 1741.14 159.047 1739.58 173.438ZM 1536.15 319.735C 1536.4 318.173 1536.57 316.61 1536.73 315.048L 1536.15 315.048L 1536.15 319.735ZM 1374.65 49.016L 1431.12 48.9337C 1456.84 48.8515 1492.27 49.0982 1502.13 49.0982C 1522.76 49.0982 1540.26 46.3844 1557.2 59.1309C 1560.57 61.6802 1563.03 63.9006 1565.66 67.0256C 1568.46 70.315 1569.61 72.782 1572.24 76.4004C 1588.76 55.5948 1601.41 56.006 1634.62 53.2922C 1661.17 51.1541 1687.71 49.1804 1714.26 47.0423C 1741.38 44.822 1759.88 60.1178 1767.69 78.5385C 1776.32 99.0974 1766.21 130.347 1763.58 152.962C 1783.47 154.442 1799.08 165.79 1806.81 181.744C 1812.64 193.833 1812.97 202.55 1810.67 215.707C 1807.47 234.128 1801.71 284.867 1798.42 297.449C 1794.73 311.183 1786.18 321.051 1777.22 327.054C 1764.07 335.853 1753.22 335.607 1735.06 335.607C 1733.74 336.018 1728.15 372.202 1727.74 375.902C 1755.44 374.833 1774.75 391.774 1780.92 413.237C 1784.7 426.395 1781.58 440.457 1779.69 453.779C 1777.88 467.019 1776.15 480.095 1774.34 493.334C 1770.73 519.403 1770.97 539.88 1745.25 555.011C 1737.27 559.781 1722.73 562.33 1708.26 563.81C 1679 566.935 1651.14 568.004 1621.88 565.702C 1607 564.468 1583.99 561.097 1560.65 547.445C 1540.26 535.521 1526.29 519.403 1514.79 496.788C 1513.22 499.667 1511.58 517.018 1510.26 522.117C 1504.76 543.416 1485.94 560.603 1460.87 560.932C 1421.83 561.59 1382.05 561.097 1343.01 560.932C 1323.53 560.85 1310.95 551.886 1302.82 542.429C 1292.79 530.669 1289.25 516.031 1292.3 496.871C 1295.09 479.93 1297.8 463.072 1300.51 446.131C 1303.23 429.52 1306.93 411.592 1308.73 395.063C 1285.8 398.27 1235.5 395.392 1207.97 396.461C 1203.78 425.655 1198.43 455.177 1193.67 484.289C 1187.91 519.321 1188.24 539.551 1162.35 554.6C 1149.12 562.248 1134.82 560.932 1118.13 560.932L 1016.63 560.932C 1004.63 560.932 996.164 559.699 985.972 553.695C 983.671 552.297 980.054 549.255 978.41 548.515C 974.301 552.955 964.438 557.807 956.63 559.616C 947.589 561.754 934.767 560.932 925.069 560.932C 912.411 560.932 835.974 561.754 827.016 560.356C 807.619 557.396 813.618 551.311 803.345 555.505C 778.359 565.62 744.825 569.32 717.784 565.373C 689.757 561.343 661.484 548.186 643.402 528.202C 640.936 531.574 639.457 536.261 636.58 540.126C 628.361 551.146 615.95 559.041 600.827 560.685C 591.951 561.59 505.158 560.932 488.555 560.932C 474.912 560.932 468.336 559.945 457.816 554.189C 455.679 552.955 453.789 554.6 451.241 555.587C 439.487 560.439 426.501 563.728 413.844 565.455C 396.42 567.84 377.351 567.511 360.091 564.139C 315.298 555.258 284.312 526.558 265.819 483.22C 263.846 488.071 261.216 511.509 259.819 518.827C 257.6 530.752 251.682 539.962 245.436 546.047C 226.614 564.386 208.039 560.932 177.135 560.932C 151.163 560.932 79.1644 565.702 58.8634 554.353C 38.6445 543.005 30.0145 522.035 33.8775 498.104L 63.1373 318.831C 65.1099 306.742 67.0824 294.982 69.055 282.894C 70.0413 276.562 74.9727 251.809 74.5618 247.45C 52.5347 247.45 39.1377 249.506 22.5352 238.569C 13.7408 232.73 6.34367 223.438 2.80948 212.994C -1.46443 200.576 -0.149378 191.777 2.06977 179.113C 4.86424 162.83 15.8778 92.2719 18.9188 83.4727C 24.0968 68.588 36.261 56.7461 51.4662 51.6475C 64.4523 47.3713 96.9998 49.0982 112.78 49.0982C 177.135 49.0982 241.491 49.0982 305.846 49.0982C 326.476 49.0982 349.242 48.1936 369.461 49.6739C 370.53 46.22 375.297 39.1477 377.351 36.5984C 386.803 24.5098 396.995 15.9573 412.693 9.87187C 435.46 1.07267 462.419 2.79962 488.062 2.63515L 816.742 1.15491C 844.029 1.07267 871.398 0.9082 898.768 0.825965C 926.795 0.661494 954.822 0.168081 982.849 0.00360979C 993.944 0.00360979 1005.29 -0.160861 1016.22 1.73056C 1029.37 3.95091 1038.82 7.73375 1049.59 14.6415C 1058.05 20.0691 1073.5 36.4339 1076.63 49.1804C 1120.11 48.1936 1164.74 49.0982 1208.38 49.0982C 1252.02 49.0982 1295.67 49.0982 1339.39 49.0982C 1351.14 49.0982 1362.9 48.9337 1374.65 49.016Z"/>
<path id="path2_fill" fill-rule="evenodd" d="M 11.2601 37.6639L 1.89038 37.6639L 4.68486 25.7397L 14.0546 25.7397L 14.8765 22.2036C 15.534 19.3253 16.6025 16.6116 17.9997 14.1445C 19.4791 11.5952 21.2873 9.45708 23.4243 7.6479C 25.6434 5.83872 28.1913 4.44072 31.068 3.37166C 34.0269 2.30259 37.2323 1.80918 40.6843 1.80918C 41.6706 1.80918 42.6569 1.80918 43.7253 1.80918C 44.7116 1.89142 45.6157 1.97365 46.2732 2.13812L 43.4788 14.2267L 40.8487 14.2267C 38.0542 14.2267 35.6707 14.8024 33.6981 16.0359C 31.7255 17.2695 30.4105 19.3253 29.753 22.2858L 28.931 25.7397L 40.7665 25.7397L 38.0542 37.6639L 26.1366 37.6639L 14.9587 86.1828L 0 86.1828L 11.2601 37.6639ZM 81.8617 79.275C 79.0672 81.7421 75.8618 83.798 72.3276 85.2782C 68.7934 86.8407 65.0127 87.5808 61.0675 87.5808C 56.8758 87.5808 53.095 86.8407 49.8896 85.3605C 46.6842 83.8802 44.1363 81.7421 42.1637 78.9461C 40.2733 76.1501 39.0405 72.8607 38.4651 68.9956C 37.8898 65.1305 38.2186 60.772 39.287 56.0024C 40.4377 51.2327 42.1637 46.8742 44.465 43.0092C 46.8486 39.0619 49.643 35.7725 52.8485 32.9764C 56.0539 30.2627 59.5881 28.1245 63.5332 26.6443C 67.4784 25.0818 71.5057 24.3417 75.7796 24.3417C 79.7248 24.3417 83.0946 25.0818 85.9712 26.6443C 88.7657 28.2068 90.9849 30.2627 92.6287 32.812L 94.2725 25.7397L 109.231 25.7397L 95.1766 86.1828L 80.3001 86.1828L 81.8617 79.275ZM 67.3962 74.3409C 70.766 74.3409 74.0536 73.5186 77.3412 71.9561C 80.5467 70.3114 83.1768 68.091 85.1493 65.295L 89.4232 46.7098C 88.7657 43.8315 87.2041 41.6112 84.7384 39.9665C 82.2727 38.404 79.3138 37.5816 75.944 37.5816C 73.5605 37.5816 71.1769 37.9928 68.8756 38.8152C 66.5743 39.6375 64.4373 40.8711 62.5469 42.4335C 60.6566 43.996 59.0128 45.8874 57.6155 48.19C 56.1361 50.4926 55.0676 53.1241 54.4101 56.0024C 53.7526 58.8806 53.5882 61.5122 53.9991 63.7325C 54.3279 66.0351 55.1498 67.9265 56.3005 69.489C 57.4511 71.0515 59.0128 72.285 60.9031 73.1074C 62.7935 73.9297 65.0127 74.3409 67.3962 74.3409ZM 199.641 52.3018C 200.709 47.3677 200.545 43.7493 199.065 41.2822C 197.586 38.8152 194.545 37.5816 190.107 37.5816C 188.216 37.5816 186.49 37.9106 184.846 38.4862C 183.203 39.0619 181.805 39.802 180.408 40.7888C 179.093 41.7756 177.942 42.9269 176.874 44.1605C 175.888 45.394 174.984 46.7098 174.326 48.19L 165.449 86.1828L 150.573 86.1828L 158.463 52.3018C 160.682 42.5158 157.559 37.5816 148.929 37.5816C 145.148 37.5816 141.943 38.6507 139.231 40.7888C 136.601 42.9269 134.546 45.394 133.066 48.19L 124.272 86.1828L 109.396 86.1828L 123.368 25.7397L 138.327 25.7397L 136.354 34.21C 138.655 31.414 141.532 29.1114 144.984 27.22C 148.518 25.2463 152.628 24.3417 157.313 24.3417C 162.326 24.3417 166.189 25.3285 168.901 27.3844C 171.614 29.4403 173.422 32.2363 174.244 35.8547C 177.367 32.1541 180.901 29.2758 184.846 27.3022C 188.792 25.3285 193.312 24.3417 198.49 24.3417C 202.353 24.3417 205.641 24.9996 208.188 26.2331C 210.736 27.5489 212.627 29.3581 213.942 31.6607C 215.257 33.9633 215.997 36.7593 216.079 39.9665C 216.161 43.2559 215.75 46.792 214.928 50.6571L 206.627 86.1828L 191.75 86.1828L 199.641 52.3018ZM 234.078 25.7397L 248.955 25.7397L 234.9 86.1828L 220.024 86.1828L 234.078 25.7397ZM 239.75 0L 255.037 0L 251.421 15.5425L 236.215 15.5425L 239.75 0ZM 268.434 2.79601L 283.393 2.79601L 263.996 86.1828L 249.119 86.1828L 268.434 2.79601ZM 297.612 78.4527L 285.694 25.7397L 301.639 25.7397L 309.283 61.9233L 332.625 25.7397L 348.652 25.7397L 294.488 106.495L 278.461 106.495L 297.612 78.4527ZM 394.761 87.5808C 389.747 87.5808 385.473 86.6762 382.021 84.9493C 378.487 83.2223 375.775 80.8375 373.72 77.9593C 371.748 75.081 370.515 71.7094 370.022 67.9265C 369.446 64.1437 369.693 60.1964 370.597 56.0024C 371.583 51.8906 373.227 47.8611 375.528 44.0782C 377.83 40.2954 380.624 36.9237 383.912 34.0455C 387.282 31.085 391.144 28.7002 395.418 26.9732C 399.774 25.1641 404.459 24.3417 409.391 24.3417C 415.555 24.3417 420.486 25.6575 424.267 28.289C 428.048 31.0028 430.925 34.6212 432.815 39.3086L 420.404 47.4499C 419.418 44.5717 417.856 42.1868 415.719 40.3776C 413.665 38.4862 410.788 37.5816 407.172 37.5816C 401.994 37.5816 397.473 39.2263 393.61 42.598C 389.665 45.8874 387.117 50.4104 385.802 56.0024C 384.487 61.6766 384.98 66.1174 387.364 69.4068C 389.747 72.6962 393.528 74.3409 398.624 74.3409C 402.24 74.3409 405.528 73.4363 408.487 71.5449C 411.445 69.7357 414.076 67.3509 416.459 64.4726L 425.089 72.5317C 421.062 77.3014 416.459 80.9197 411.445 83.6335C 406.432 86.2651 400.843 87.5808 394.761 87.5808ZM 450.897 2.79601L 465.773 2.79601L 446.459 86.1828L 431.582 86.1828L 450.897 2.79601ZM 516.978 86.1828L 502.102 86.1828L 504.074 77.7126C 501.773 80.5086 498.814 82.8112 495.115 84.7026C 491.499 86.6762 487.307 87.5808 482.622 87.5808C 478.759 87.5808 475.472 86.9229 472.842 85.6894C 470.294 84.3736 468.321 82.5645 467.006 80.2619C 465.609 77.9593 464.869 75.1633 464.705 71.9561C 464.458 68.7489 464.869 65.2128 465.773 61.2655L 473.992 25.7397L 488.869 25.7397L 480.979 59.6208C 478.759 69.4068 482.047 74.3409 491.006 74.3409C 494.704 74.3409 497.91 73.2718 500.869 71.1337C 503.745 68.9134 505.882 66.5285 507.28 63.7325L 516.074 25.7397L 531.033 25.7397L 516.978 86.1828ZM 546.073 86.1828L 531.197 86.1828L 550.512 2.79601L 565.388 2.79601L 558.484 32.812C 561.279 30.2627 564.402 28.2068 568.018 26.6443C 571.553 25.0818 575.333 24.3417 579.361 24.3417C 583.552 24.3417 587.251 25.0818 590.456 26.6443C 593.662 28.1245 596.21 30.2627 598.182 32.9764C 600.155 35.7725 601.388 39.0619 601.881 43.0092C 602.456 46.8742 602.21 51.2327 601.059 56.0024C 599.99 60.772 598.264 65.1305 595.881 68.9956C 593.58 72.8607 590.785 76.1501 587.497 78.9461C 584.292 81.7421 580.758 83.8802 576.813 85.3605C 572.95 86.8407 568.84 87.5808 564.649 87.5808C 560.621 87.5808 557.251 86.8407 554.375 85.2782C 551.498 83.798 549.279 81.7421 547.717 79.275L 546.073 86.1828ZM 564.402 74.3409C 566.868 74.3409 569.251 73.9297 571.553 73.1074C 573.854 72.285 575.909 71.0515 577.799 69.489C 579.689 67.9265 581.333 66.0351 582.813 63.7325C 584.21 61.5122 585.278 58.8806 585.936 56.0024C 586.593 53.1241 586.758 50.4926 586.429 48.19C 586.018 45.8874 585.278 43.996 584.128 42.4335C 582.977 40.8711 581.415 39.6375 579.443 38.8152C 577.552 37.9928 575.415 37.5816 572.95 37.5816C 569.58 37.5816 566.292 38.404 563.087 39.9665C 559.881 41.6112 557.251 43.8315 555.197 46.7098L 550.923 65.295C 551.58 68.091 553.224 70.3114 555.69 71.9561C 558.155 73.5186 561.114 74.3409 564.402 74.3409Z"/>
<path id="path3_fill" fill-rule="evenodd" d="M 375.199 2.38483L 67.314 2.38483L 0 411.178L 125.094 411.178L 151.888 246.707L 284.132 246.707L 299.009 158.55L 166.189 158.55L 176.874 97.6958L 359.748 97.6958L 375.199 2.38483ZM 492.814 134.208L 374.871 134.208L 329.995 411.178L 447.938 411.178L 492.814 134.208ZM 707.66 0L 601.634 8.30579L 578.95 106.084L 528.896 106.084L 517.06 185.935L 560.539 185.935L 545.58 279.519C 543.854 292.594 539.663 306.327 539.663 327.215C 539.663 348.596 542.621 379.599 566.457 399.253C 586.676 415.947 614.702 417.181 637.962 417.181C 662.948 417.181 683.249 415.947 707.66 411.835L 718.92 328.942C 707.66 331.327 696.893 331.327 685.633 331.327C 679.633 331.327 668.291 330.751 662.373 321.788C 661.14 320.061 658.757 315.867 658.757 306.903C 658.757 300.982 659.989 294.979 661.14 289.058L 678.482 185.935L 736.262 185.935L 748.18 106.084L 690.975 106.084L 707.66 0Z"/>
<path id="path4_fill" fill-rule="evenodd" d="M 133.395 0L 15.4518 0L 0 95.311L 117.943 95.311L 133.395 0Z"/>
<path id="path5_fill" fill-rule="evenodd" d="M 16.0271 0L 0 95.311L 83.9987 95.311L 32.7118 408.793L 157.806 408.793L 209.093 95.311L 293.667 95.311L 309.694 0L 16.0271 0ZM 377.665 205.013C 380.049 199.668 385.966 189.471 389.583 184.701C 395.501 177.546 406.268 169.241 423.528 169.241C 441.938 169.241 452.705 177.546 452.705 191.28C 452.705 196.625 450.322 209.207 449.746 211.592C 409.226 213.977 362.707 219.898 330.57 231.822C 312.077 238.401 291.283 249.091 276.407 267.019C 265.64 280.094 255.53 299.748 255.53 327.215C 255.53 353.366 265.064 374.829 278.133 389.714C 293.667 407.066 312.077 414.796 339.529 414.796C 360.981 414.796 403.226 410.026 432.404 359.945C 430.021 377.214 430.021 393.332 431.829 408.793L 543.854 408.793C 539.087 369.484 543.854 340.866 553.964 278.861L 560.539 238.976C 562.265 227.052 565.881 205.013 565.881 193.089C 565.881 150.162 544.43 126.889 525.361 115.623C 511.06 106.659 486.65 97.6958 442.596 97.6958C 412.761 97.6958 373.474 101.314 339.529 122.778C 307.31 143.008 295.475 167.432 289.475 184.125L 377.665 205.013ZM 441.938 267.594C 437.829 332.56 410.377 342.1 394.925 342.1C 381.199 342.1 368.706 331.903 368.706 315.867C 368.706 298.597 378.816 288.4 385.966 283.63C 402.076 272.364 424.103 267.594 441.938 267.594ZM 761.823 103.699L 643.88 103.699L 611.744 293.17C 609.36 306.327 607.552 318.827 607.552 331.903C 607.552 353.366 612.319 372.445 626.045 388.563C 643.88 409.451 667.715 414.796 688.592 414.796C 714.811 414.796 737.988 408.793 760.015 390.372C 770.782 381.408 781.467 370.06 789.85 354.6L 791.001 354.6L 783.275 408.793L 893.493 408.793L 944.122 103.699L 826.179 103.699L 798.809 269.979C 795.768 287.824 791.659 306.327 778.508 320.636C 770.782 328.942 761.248 333.712 751.714 333.712C 745.796 333.712 738.646 330.751 734.454 325.982C 730.838 321.788 729.112 315.291 729.112 307.479C 729.112 302.709 730.838 289.058 732.071 282.479L 761.823 103.699Z"/>
</defs>
</svg>
